<?xml version="1.0" encoding="UTF-8"?>
<svg width="179px" height="98px" viewBox="0 0 179 98" version="1.1" xmlns="http://www.w3.org/2000/svg" xmlns:xlink="http://www.w3.org/1999/xlink">
    <!-- Generator: Sketch 52.2 (67145) - http://www.bohemiancoding.com/sketch -->
    <title>financial-freedom copy</title>
    <desc>Created with Sketch.</desc>
    <defs>
        <path d="M37.1811473,28.7276824 C36.5508577,28.2599816 35.882429,27.8468755 35.1830154,27.4927856 C36.8691777,25.9270492 37.9229533,23.789409 38.1425127,21.4892871 C38.7370856,17.8157613 37.1911767,14.1236867 34.1650992,11.9900806 C31.8147756,10.2857717 28.9926109,9.36867167 26.0971703,9.36829961 L25.9086673,9.36829961 L25.9086673,0.781016949 L21.1772417,0.781016949 L21.1772417,9.29230595 L16.3704149,9.29230595 L16.3704149,0.781016949 L11.5447378,0.781016949 L11.5447378,9.31130437 L0.800066143,9.31130437 L0.800066143,15.0108283 L7.56732425,15.0108283 L7.56732425,42.9574937 L2.44004234,42.9574937 C2.27038963,42.9574937 2.19498843,42.9574937 2.15728783,43.1664763 C1.7237309,45.1613096 1.27132367,47.1371446 0.818916444,49.1129795 C0.818916444,49.1129795 0.818916444,49.1129795 0.818916444,49.2459684 L11.5635881,49.2459684 L11.5635881,57.510278 C11.5635881,57.510278 11.5635881,57.7002622 11.5635881,57.7952542 L16.3704149,57.7952542 C16.3704149,57.7952542 16.3704149,57.6622653 16.3704149,57.5862717 L16.3704149,49.2459684 L21.0829902,49.2459684 C21.0910851,49.2963024 21.0910851,49.3476217 21.0829902,49.3979557 L21.0829902,57.7762558 L25.889817,57.7762558 C25.889817,57.6812638 25.889817,57.5862717 25.889817,57.4912796 L25.889817,49.2459684 L27.7748471,49.2459684 C29.8088843,49.2963587 31.834676,48.9678818 33.7503925,48.2770493 C37.9182903,47.0373511 40.9513346,43.4124495 41.4601657,39.0628191 C42.1216044,35.0754233 40.4585245,31.0585773 37.1811473,28.7276824 Z M16.0766946,14.842988 L22.4267603,14.842988 C23.9743006,14.7928506 25.4957228,15.2581375 26.760633,16.1683888 C28.2689939,17.2586611 29.036666,19.1293864 28.7391401,20.9897743 C28.5040678,23.0214863 27.1028687,24.7144042 25.1778273,25.2925247 C24.2910792,25.6238452 23.3522529,25.786609 22.4079173,25.7727424 L16.0013229,25.7727424 L16.0766946,14.842988 Z M29.9058045,40.7236172 C29.0770285,41.635654 28.0012172,42.2820251 26.8118271,42.5825469 C25.8080875,42.8466852 24.773413,42.9717607 23.7362663,42.9543329 L16.0013229,42.9543329 L16.0013229,31.2430755 L24.0125143,31.2430755 C25.3667316,31.2122692 26.711426,31.478657 27.9536521,32.023826 C30.0112988,32.8567159 31.3147984,34.9200162 31.1949617,37.1544721 C31.2068561,38.462378 30.7488743,39.730341 29.9058045,40.7236172 Z" id="path-1"></path>
    </defs>
    <g id="✅-Website" stroke="none" stroke-width="1" fill="none" fill-rule="evenodd">
        <g id="financial-freedom-copy" transform="translate(1.000000, 1.000000)">
            <path d="M106.983186,55.9609756 C106.983186,55.9609756 119.749115,53.7756098 118.574336,24.1170732 C117.712832,2.26341463 137.370796,7.88292683 146.064159,7.88292683 C167.60177,7.72682927 175.042035,0.468292683 175.433628,0.156097561 C176.060177,-0.312195122 183.265487,19.6682927 151.233186,23.4146341 C151.233186,23.4146341 161.649558,29.1902439 169.089823,27.5512195 C169.089823,27.5512195 163.137611,41.8341463 143.401327,38.2439024 C146.455752,41.2878049 150.45,43.2390244 154.757522,43.7853659 C154.757522,43.7853659 149.980088,53.2292683 132.984956,51.3560976 C133.141593,51.2780488 124.761504,61.7365854 106.983186,55.9609756 Z" id="Shape" fill="#D0D6E1"></path>
            <path d="M168.69823,28.1756098 C168.69823,28.1756098 156.245575,35.7463415 139.95531,21.5414634 L154.052655,24.8195122 L162.902655,27.3170732 L168.69823,28.1756098 Z" id="Shape" fill="#B7C1D2"></path>
            <path d="M154.287611,44.2536585 C154.287611,44.2536585 145.750885,47.0634146 136.587611,36.5268293 L143.088053,38.5560976 L151.703097,43.8634146 L154.287611,44.2536585 Z" id="Shape" fill="#B7C1D2"></path>
            <path d="M141.756637,50.8878049 C137.919027,51.2780488 137.840708,45.4243902 137.762389,43.004878 C137.605752,36.5268293 135.412832,30.2829268 131.65354,25.1317073 C128.050885,20.0585366 124.761504,14.204878 128.599115,8.35121951 C128.599115,8.35121951 116.14646,11.4731707 120.453982,21.7756098 L124.44823,26.302439 L129.852212,37.1512195 L132.671681,51.8243902 L141.756637,50.8878049 Z" id="Shape" fill="#B7C1D2"></path>
            <path d="M106.983186,55.9609756 C106.983186,55.9609756 119.749115,53.7756098 118.574336,24.1170732 C117.712832,2.26341463 137.370796,7.88292683 146.064159,7.88292683 C167.60177,7.72682927 175.042035,0.468292683 175.433628,0.156097561 C176.060177,-0.312195122 183.265487,19.6682927 151.233186,23.4146341 C151.233186,23.4146341 161.649558,29.1902439 169.089823,27.5512195 C169.089823,27.5512195 163.137611,41.8341463 143.401327,38.2439024 C146.455752,41.2878049 150.45,43.2390244 154.757522,43.7853659 C154.757522,43.7853659 149.980088,53.2292683 132.984956,51.3560976 C133.141593,51.2780488 124.761504,61.7365854 106.983186,55.9609756 Z" id="Shape" stroke="#12326B" stroke-width="1.5620339" stroke-linecap="round" stroke-linejoin="round"></path>
            <path d="M157.576991,22.4780488 C157.576991,22.4780488 147.003982,25.7560976 139.250442,20.9170732" id="Shape" stroke="#12326B" stroke-width="1.5620339" stroke-linecap="round" stroke-linejoin="round"></path>
            <path d="M155.462389,38.2439024 C155.462389,38.2439024 144.889381,40.5853659 137.214159,35.8243902" id="Shape" stroke="#12326B" stroke-width="1.5620339" stroke-linecap="round" stroke-linejoin="round"></path>
            <path d="M70.3300885,55.9609756 C70.3300885,55.9609756 57.5641593,53.7756098 58.7389381,24.1170732 C59.6004425,2.26341463 39.9424779,7.88292683 31.249115,7.88292683 C9.71150442,7.72682927 2.27123894,0.468292683 1.87964602,0.156097561 C1.25309735,-0.312195122 -5.95221239,19.6682927 26.0800885,23.4146341 C26.0800885,23.4146341 15.6637168,29.1902439 8.22345133,27.5512195 C8.22345133,27.5512195 14.1756637,41.8341463 33.9902655,38.2439024 C30.9358407,41.2878049 26.9415929,43.2390244 22.6340708,43.7853659 C22.6340708,43.7853659 27.4115044,53.2292683 44.4849558,51.3560976 C44.25,51.2780488 52.6300885,61.7365854 70.3300885,55.9609756 Z" id="Shape" fill="#D0D6E1"></path>
            <path d="M35.3216814,50.8878049 C39.159292,51.2780488 39.2376106,45.4243902 39.3159292,43.004878 C39.4725664,36.5268293 41.6654867,30.2829268 45.4247788,25.1317073 C49.0274336,20.0585366 52.3168142,14.204878 48.4792035,8.35121951 C48.4792035,8.35121951 60.9318584,11.4731707 56.6243363,21.7756098 L52.6300885,26.302439 L47.1477876,37.1512195 L44.3283186,51.8243902 L35.3216814,50.8878049 Z" id="Shape" fill="#B7C1D2"></path>
            <path d="M8.3800885,28.1756098 C8.3800885,28.1756098 20.9110619,35.7463415 37.0446903,21.5414634 L23.0256637,24.8195122 L14.0973451,27.2390244 L8.3800885,28.1756098 Z" id="Shape" fill="#B7C1D2"></path>
            <path d="M22.790708,44.2536585 C22.790708,44.2536585 31.3274336,47.0634146 40.490708,36.5268293 L33.9902655,38.5560976 L25.3752212,43.8634146 L22.790708,44.2536585 Z" id="Shape" fill="#B7C1D2"></path>
            <path d="M70.3300885,55.9609756 C70.3300885,55.9609756 57.5641593,53.7756098 58.7389381,24.1170732 C59.6004425,2.26341463 39.9424779,7.88292683 31.249115,7.88292683 C9.71150442,7.72682927 2.27123894,0.468292683 1.87964602,0.156097561 C1.25309735,-0.312195122 -5.95221239,19.6682927 26.0800885,23.4146341 C26.0800885,23.4146341 15.6637168,29.1902439 8.22345133,27.5512195 C8.22345133,27.5512195 14.1756637,41.8341463 33.9902655,38.2439024 C30.9358407,41.2878049 26.9415929,43.2390244 22.6340708,43.7853659 C22.6340708,43.7853659 27.4115044,53.2292683 44.4849558,51.3560976 C44.25,51.2780488 52.6300885,61.7365854 70.3300885,55.9609756 Z" id="Shape" stroke="#12326B" stroke-width="1.5620339" stroke-linecap="round" stroke-linejoin="round"></path>
            <path d="M19.8146018,22.4780488 C19.8146018,22.4780488 30.3876106,25.1317073 38.1411504,20.3707317" id="Shape" stroke="#12326B" stroke-width="1.5620339" stroke-linecap="round" stroke-linejoin="round"></path>
            <path d="M21.9292035,38.2439024 C21.9292035,38.2439024 32.5022124,40.5853659 40.1774336,35.8243902" id="Shape" stroke="#12326B" stroke-width="1.5620339" stroke-linecap="round" stroke-linejoin="round"></path>
            <ellipse id="Oval" stroke="#12326B" stroke-width="0.5" fill="#FFFFFF" fill-rule="nonzero" cx="88.1084071" cy="51.1219512" rx="44.25" ry="44.097561"></ellipse>
            <path d="M104.790265,80.0780488 C113.326991,80.0780488 119.749115,78.9073171 126.562832,74.9268293 C118.574336,87.7268293 105.730088,95.2195122 89.1265487,95.2195122 C63.9079646,95.2195122 43.4668142,75.5512195 43.4668142,51.2780488 C43.5451327,35.5902439 52.0035398,21.2292683 65.6309735,13.5804878 C61.3234513,20.3707317 59.130531,28.2536585 59.130531,36.2146341 C59.130531,60.4097561 79.5716814,80.0780488 104.790265,80.0780488 Z" id="Shape" fill="#F2F2F2" fill-rule="nonzero"></path>
            <ellipse id="Oval" stroke="#12326B" stroke-width="1.5620339" stroke-linecap="round" stroke-linejoin="round" cx="88.0300885" cy="51.2" rx="44.25" ry="44.097561"></ellipse>
            <g id="btc-icon" transform="translate(67.353982, 22.634146)">
                <mask id="mask-2" fill="white">
                    <use xlink:href="#path-1"></use>
                </mask>
                <use id="Shape" fill="#EF476F" fill-rule="nonzero" xlink:href="#path-1"></use>
            </g>
        </g>
    </g>
</svg>