<svg id="Layer_1" data-name="Layer 1" xmlns="http://www.w3.org/2000/svg" viewBox="0 0 152.96 191.94">
  <defs>
    <style>
      .cls-1 {
        fill: #9e9e9e;
      }
    </style>
  </defs>
  <title>horizontal-scroll</title>
  <g>
    <path class="cls-1" d="M196,232.88c0-20.54,0-40.69,0-60.83a24.75,24.75,0,0,1,.68-6.9,14.3,14.3,0,0,1,15.47-10,14.53,14.53,0,0,1,12.5,14.13c.26,8.82.09,17.66.1,26.49v5c13.28-6,18-4.89,25.5,5.95,4.65-3.22,9.69-4.88,15.33-2.59s8.48,6.71,9.6,12.88l3.17-1.5c9.5-4.42,20.25.7,21,11.07q2.24,31.11,2.69,62.34c.21,13.22-4.31,25.55-10.65,37a26.1,26.1,0,0,0-3.68,13.68c.12,5.41-1.88,7.24-7.18,7.25q-31.74.07-63.48,0c-5.52,0-7.38-1.71-7-7.17.24-4.09-1.24-6.91-4.13-9.58-5.51-5.08-10.48-10.78-16.22-15.57-9.12-7.64-14.1-17.28-14.8-28.92s-.66-23.55-.94-35.33a2.14,2.14,0,0,1,.06-.5C176.21,236.79,182.53,231.76,196,232.88Zm82.31,106c2.22-5.91,3.54-11,5.95-15.6a90,90,0,0,0,10.26-49.17c-.92-13.78-1.81-27.58-2.48-41.38-.38-7.59-2-10.59-6.65-10.92-4.1-.29-8.46,3.7-7.4,10.73.55,3.61-1.31,6.3-5.27,6.33s-5.49-2.62-5.53-6.25c-.06-4.67.06-9.33-.06-14s-2.9-7.58-6.85-7.63-6.89,3-7.13,7.47c-.17,3.33-.08,6.66-.06,10,0,3.62-1.67,5.78-5.36,5.72-3.49-.07-4.9-2.29-4.89-5.64,0-5.16,0-10.33-.07-15.49-.13-5.31-2.54-8.14-6.71-8.19-4.45-.06-6.94,2.89-7,8.43-.05,5.82,0,11.65,0,17.48,0,6.14-2.06,9-6.17,8.95s-5.91-3-5.92-9.21c0-10.66,0-21.31,0-32,0-9.5.08-19,0-28.48-.06-4.47-2.81-7.21-6.65-7.17s-6.25,2.7-6.44,7.31c0,.66,0,1.33,0,2,0,23.31.06,46.63,0,70,0,3.12,1.32,7.45-3.19,8.4-4.74,1-4.67-3.68-5.89-6.53-1.84-4.31-5.87-5.46-8.93-2-1.87,2.15-3.72,5.22-3.75,7.89q-.23,18.15.72,36.29c.46,8.66,4.34,15.77,11.12,21.52,5.83,4.95,10.92,10.75,16.56,15.93,4.47,4.09,8,8.5,7.31,15.17Z" transform="translate(-173.93 -155.06)"/>
    <path class="cls-1" d="M319.91,173.72H255.19l4.12,7.34-1.46.88-9.63-11,9.41-9.86c1.31,2.2,1.31,2.2-2.69,8.23h64.93a49.78,49.78,0,0,1-4.28-4.92c-.42-.61,0-1.77,0-2.67.88.07,2.07-.2,2.59.27,2.82,2.58,5.49,5.33,8.17,8.06.32.32.68,1.16.55,1.29-3.38,3.51-6.82,7-10.25,10.42-.31-1.15-1.21-2.6-.81-3.39C316.59,176.86,318.1,175.69,319.91,173.72Z" transform="translate(-173.93 -155.06)"/>
  </g>
</svg>
