<?xml version="1.0" encoding="UTF-8"?>
<svg width="114px" height="98px" viewBox="0 0 114 98" version="1.1" xmlns="http://www.w3.org/2000/svg" xmlns:xlink="http://www.w3.org/1999/xlink">
    <!-- Generator: Sketch 51.3 (57544) - http://www.bohemiancoding.com/sketch -->
    <title>icon-trusted</title>
    <desc>Created with Sketch.</desc>
    <defs></defs>
    <g id="➕Website" stroke="none" stroke-width="1" fill="none" fill-rule="evenodd">
        <g id="icon-trusted" transform="translate(1.000000, 1.000000)">
            <path d="M19.6,62.1 L11.2,53.6 C-1.2,41.5 -3.1,23.8 9.6,10.8 C22.3,-2.2 42.7,-2.8 55.1,9.4" id="Shape" stroke="#12326B" stroke-width="1.7" fill="#D0D6E1" fill-rule="nonzero" stroke-linecap="square"></path>
            <path d="M34.1,58.8 L25.7,50.3 C13.3,38.1 11.4,20.4 24.1,7.4 C26.9,4.6 30.1,2.3 33.7,0.5 C33.7,0.5 2.6,0.6 0.9,31.7 C0.9,31.7 -0.1,44.7 18.2,60.7 L34.1,58.8 Z" id="Shape" fill="#B7C1D2"></path>
            <path d="M19.6,62.1 L11.2,53.6 C-1.2,41.5 -3.1,23.8 9.6,10.8 C22.3,-2.2 42.7,-2.8 55.1,9.4" id="Shape-Copy" stroke="#12326B" stroke-width="2" stroke-linecap="round" fill-rule="nonzero"></path>
            <path d="M55.3,10.7 C55.3,10.7 22.3,42.5 22.7,43.3 C23.1,44.1 33.5,62 34.3,62.6 C35.1,63.2 55.3,77.6 57.2,77.8 C59.1,78 69.5,82.2 69.5,82.2 L83.8,72.4 L91.1,64.9 L100.3,53.7 L66.9,21 L55.3,10.7 Z" id="Shape" fill="#FFFFFF" fill-rule="nonzero"></path>
            <path d="M55.3,10.7 C55.3,10.7 22.3,42.5 22.7,43.3 C23.1,44.1 33.5,62 34.3,62.6 C35.1,63.2 55.3,77.6 57.2,77.8 C59.1,78 69.5,82.2 69.5,82.2 C71.8333333,86.0666667 74.6666667,87.3333333 78,86 C81.3333333,84.6666667 83,81.3333333 83,76 C86.831617,75.5245944 89.1649503,74.8579278 90,74 C90.5532425,73.4316002 91.8579428,72.4781505 92,70 C92.0482401,69.1584635 91.7482401,67.4584635 91.1,64.9 L96.8,65.6 L101.7,61.7 L101.9,55.7 L66.9,21 L55.3,10.7 Z" id="Shape" fill="#D0D6E1" fill-rule="nonzero"></path>
            <path d="M70.4,78.8 C70.4,78.8 77.8,85.7 81.5,76 C81.5,76 82.6,78.2 82.7,78.5 C82.8,79.3 82.8,80.2 82.7,81 C82.3,82 81.8,83 81.3,83.9 L79.9,85.2 L77.9,86.2 L74.9,86.4 L73.6,86.2 L72.2,85.4 L69.7,83.4 L70.1,81 L70.4,78.8 Z" id="Shape" fill="#B7C1D2"></path>
            <path d="M79.2,72.4 L81.7,74.4 L83.1,75.2 L84.4,75.4 L87.4,75.2 L89.4,74.2 L90.8,72.8 C91.3,71.9 91.8,70.9 92.3,69.9 C92.4,69.1 92.4,68.2 92.3,67.4 C92.2,67.1 91.1,64.9 91.1,64.9 C86,77.3 62.6,52.6 62.6,52.6 C62.6,52.6 58.8,49 57,51.5 L79.2,72.4 Z" id="Shape" fill="#B7C1D2"></path>
            <path d="M89,62.2 L91.5,64.2 L92.8,65 L94.2,65.2 L97.2,65 L99.2,64 L100.5,62.7 C101,61.8 101.5,60.8 101.9,59.8 C102,59 102,58.1 101.9,57.3 C101.8,57 100.7,54.8 100.7,54.8 C95.6,67.2 71.7,42.2 71.7,42.2 C71.7,42.2 68.1,38.5 66.2,41 L89,62.2 Z" id="Shape" fill="#B7C1D2"></path>
            <path d="M66.6,41.2 L90.6,64 C93.2,66.7 93.1,71.1 90.4,73.7 C87.7,76.5 83.1,76.8 80.5,74.3" id="Shape" stroke="#12326B" stroke-width="2" stroke-linecap="round" fill-rule="nonzero"></path>
            <path d="M56.9,51.8 L80.9,74.6 C83.5,77.3 83.4,81.7 80.7,84.3 C78.2,87.1 73.9,87.4 71.1,84.9 L47.1,62.1" id="Shape" stroke="#12326B" stroke-width="2" stroke-linecap="round" fill-rule="nonzero"></path>
            <path d="M32.4,66.5 C29.8,68.9 25.8,68.9 23.3,66.3 C20.7,63.9 20.5,59.8 22.9,57.2 L32.1,47.8 C34.7,45.4 38.7,45.5 41.2,48 C43.8,50.4 44,54.5 41.6,57.1 L32.4,66.5 Z" id="Shape" fill="#B7C1D2" fill-rule="nonzero"></path>
            <path d="M42.1,75.6 C39.5,78 35.5,78 33,75.4 C30.4,73 30.2,68.9 32.6,66.3 L41.8,57 C44.4,54.6 48.4,54.7 50.9,57.2 C53.5,59.6 53.7,63.7 51.3,66.3 L42.1,75.6 Z" id="Shape" fill="#B7C1D2" fill-rule="nonzero"></path>
            <path d="M52.1,84.3 C49.5,86.7 45.5,86.7 43,84.1 C40.4,81.7 40.2,77.6 42.6,75 C42.6,75 42.6,75 42.6,75 L51.8,65.7 C54.4,63.3 58.4,63.3 60.9,65.9 C63.5,68.3 63.7,72.4 61.3,75 C61.3,75 61.3,75 61.3,75 L52.1,84.3 Z" id="Shape" fill="#B7C1D2" fill-rule="nonzero"></path>
            <path d="M61.1,92.3 C58.5,94.7 54.5,94.7 52,92.1 C49.4,89.7 49.2,85.6 51.6,83 C51.6,83 51.6,83 51.6,83 L60.8,73.7 C63.4,71.3 67.4,71.3 69.9,73.9 C72.5,76.3 72.7,80.4 70.3,83 C70.3,83 70.3,83 70.3,83 L61.1,92.3 Z" id="Shape-Copy-46" fill="#B7C1D2" fill-rule="nonzero"></path>
            <path d="M29.9,66.5 C27.3,68.9 23.3,68.9 20.8,66.3 C18.2,63.9 18,59.8 20.4,57.2 L29.6,47.8 C32.2,45.4 36.2,45.5 38.7,48 C41.3,50.4 41.5,54.4 39.1,57.1 C39.1,57.1 39.1,57.1 39.1,57.1 L29.9,66.5 Z" id="Shape" stroke="#12326B" stroke-width="1.7" fill="#FFFFFF" fill-rule="nonzero" stroke-linecap="square"></path>
            <path d="M39.6,75.6 C37,78 33,78 30.5,75.4 C27.9,73 27.7,68.9 30.1,66.3 L39.3,57 C41.9,54.6 45.9,54.7 48.4,57.2 C51,59.6 51.2,63.7 48.8,66.3 L39.6,75.6 Z" id="Shape" stroke="#12326B" stroke-width="1.7" fill="#FFFFFF" fill-rule="nonzero" stroke-linecap="square"></path>
            <path d="M49.6,84.3 C47,86.7 43,86.6 40.5,84.1 C37.9,81.7 37.7,77.7 40.1,75 C40.1,75 40.1,75 40.1,75 L49.3,65.7 C51.9,63.3 55.9,63.3 58.4,65.9 C61,68.3 61.2,72.4 58.8,75 L49.6,84.3 Z" id="Shape" stroke="#424242" stroke-width="1.7" fill="#FDD835" fill-rule="nonzero" stroke-linecap="square"></path>
            <path d="M59.3,93.6 C56.7,96 52.7,96 50.2,93.4 C47.6,91 47.4,86.9 49.8,84.3 L59,75 C61.6,72.6 65.6,72.6 68.1,75.2 C70.7,77.6 70.9,81.7 68.5,84.3 C68.5,84.3 68.5,84.3 68.5,84.3 L59.3,93.6 Z" id="Shape" stroke="#12326B" stroke-width="1.7" fill="#FFFFFF" fill-rule="nonzero" stroke-linecap="square"></path>
            <path d="M102.3,56.1 C114.5,43.7 113.9,23.3 100.9,10.6 C88,-2.2 67.6,-2.4 55.4,10 L36,29.7 C33.5,32.3 33.7,37.9 36.8,40.7 C38.9,42.6 44.1,44 48,41.1 L60.7,28 L66.9,21.1 L87.2,41.1" id="Shape" stroke="#12326B" stroke-width="1.7" fill="#FFFFFF" fill-rule="nonzero" stroke-linecap="square"></path>
            <path d="M36.4,30.4 C36.4,30.4 42.2,44.8 63.6,23.6 L55.4,33.6 L47.2,41.5 L43.5,42.5 C43.5,42.5 34.4,43.6 34.2,33.6 L34.8,31.4 L36.4,30.4 Z" id="Shape" fill="#F2F2F2"></path>
            <path d="M66.1,20.7 C66.1,20.7 70,15.8 74,19.7 L98.8,43.4 C98.8,43.4 106.7,48.2 109.7,41.2 L109.3,45.5 L107.4,49.5 L104.6,53.7 C104.6,53.7 102.2,56.3 101.4,55.5 L99.1,52.1 L66.1,20.7 Z" id="Shape" fill="#F2F2F2"></path>
            <path d="M102.3,56.1 C114.5,43.7 113.9,23.3 100.9,10.6 C88,-2.2 67.6,-2.4 55.4,10 L36,29.7 C33.5,32.3 33.7,37.9 36.8,40.7 C38.9,42.6 44.1,44 48,41.1 L60.7,28 L66.9,21.1 L87.2,41.1" id="Shape-Copy-2" stroke="#12326B" stroke-width="2" stroke-linecap="round" fill-rule="nonzero"></path>
            <path d="M66,21 L100.3,53.7 C102.7,56.2 102.9,60 100.7,62.7 L100.1,63.4 C97.4,66.2 93.2,66.5 90.6,64 L88.5,62" id="Shape" stroke="#12326B" stroke-width="2"></path>
            <path d="M29.9,66.5 C27.3,68.9 23.3,68.9 20.8,66.3 C18.2,63.9 18,59.8 20.4,57.2 L29.6,47.8 C32.2,45.4 36.2,45.5 38.7,48 C41.3,50.4 41.5,54.4 39.1,57.1 C39.1,57.1 39.1,57.1 39.1,57.1 L29.9,66.5 Z" id="Shape" stroke="#12326B" stroke-width="2" fill="#FFFFFF" fill-rule="nonzero" stroke-linecap="round"></path>
            <path d="M21.6,56.9 C21.6,56.9 23.5,67.3 35.9,59.3 L29.8,66.5 L28,68.2 C28,68.2 19,70.8 18.5,59.7 C18.7,59.6 20.7,56.5 21.6,56.9 Z" id="Shape" fill="#F2F2F2" style="mix-blend-mode: multiply;"></path>
            <path d="M39.6,75.5 C37,77.9 33,77.9 30.5,75.3 C27.9,72.9 27.7,68.8 30.1,66.2 L39.3,56.9 C41.9,54.5 45.9,54.5 48.4,57.1 C51,59.5 51.2,63.6 48.8,66.2 L39.6,75.5 Z" id="Shape" stroke="#12326B" stroke-width="2" fill="#FFFFFF" fill-rule="nonzero" stroke-linecap="round"></path>
            <path d="M31.4,66 C31.4,66 33.3,76.4 45.7,68.4 L39.6,75.6 L37.9,77.3 C37.9,77.3 28.9,79.9 28.4,68.8 C28.4,68.7 30.4,65.5 31.4,66 Z" id="Shape" fill="#F2F2F2" style="mix-blend-mode: multiply;"></path>
            <path d="M49.6,84.3 C47,86.7 43,86.7 40.5,84.1 C37.9,81.7 37.7,77.7 40.1,75 L49.3,65.7 C51.9,63.3 55.9,63.3 58.4,65.9 C61,68.3 61.2,72.4 58.8,75 L49.6,84.3 Z" id="Shape" stroke="#12326B" stroke-width="1.7" fill="#FFFFFF" fill-rule="nonzero" stroke-linecap="square"></path>
            <path d="M49.6,84.2 C47,86.6 43,86.6 40.5,84 C37.9,81.6 37.7,77.5 40.1,74.9 C40.1,74.9 40.1,74.9 40.1,74.9 L49.3,65.6 C51.9,63.2 55.9,63.2 58.4,65.8 C61,68.2 61.1,72.2 58.8,74.8 L49.6,84.2 Z" id="Shape" stroke="#12326B" stroke-width="2" fill="#FFFFFF" fill-rule="nonzero" stroke-linecap="round"></path>
            <path d="M41.3,74.7 C41.3,74.7 43.2,85.1 55.6,77.1 L49.5,84.3 L47.8,86 C47.8,86 38.8,88.6 38.3,77.5 C38.4,77.4 40.4,74.3 41.3,74.7 Z" id="Shape" fill="#F2F2F2" style="mix-blend-mode: multiply;"></path>
            <path d="M59.4,93.5 C56.8,95.9 52.8,95.9 50.3,93.3 C47.7,90.9 47.5,86.8 49.9,84.2 C49.9,84.2 49.9,84.2 49.9,84.2 L59.1,74.8 C61.7,72.4 65.7,72.4 68.2,75 C70.8,77.4 71,81.5 68.6,84.1 C68.6,84.1 68.6,84.1 68.6,84.1 L59.4,93.5 Z" id="Shape" stroke="#12326B" stroke-width="2" fill="#FFFFFF" fill-rule="nonzero" stroke-linecap="round"></path>
            <path d="M51.1,83.9 C51.1,83.9 53,94.3 65.4,86.3 L59.3,93.5 L57.5,95.2 C57.5,95.2 48.5,97.8 48,86.7 C48.1,86.6 50.1,83.5 51.1,83.9 Z" id="Shape" fill="#F2F2F2" style="mix-blend-mode: multiply;"></path>
        </g>
    </g>
</svg>