<?xml version="1.0" encoding="UTF-8"?>
<svg width="82px" height="106px" viewBox="0 0 82 106" version="1.1" xmlns="http://www.w3.org/2000/svg" xmlns:xlink="http://www.w3.org/1999/xlink">
    <!-- Generator: Sketch 51.3 (57544) - http://www.bohemiancoding.com/sketch -->
    <title>icon-secure</title>
    <desc>Created with Sketch.</desc>
    <defs>
        <path d="M24.1657478,19.126851 C23.7560934,18.8154565 23.3216506,18.540411 22.8670694,18.3046584 C23.9629843,17.2621933 24.6478818,15.8389555 24.7905836,14.3075375 C25.177024,11.8617091 24.1722663,9.40353097 22.2054785,7.98297901 C20.6778945,6.84825251 18.8436391,6.23764859 16.9617583,6.23740087 L16.8392415,6.23740087 L16.8392415,0.52 L13.7640691,0.52 L13.7640691,6.1868044 L10.63989,6.1868044 L10.63989,0.52 L7.50345919,0.52 L7.50345919,6.19945352 L0.52,6.19945352 L0.52,9.9941886 L4.91835412,9.9941886 L4.91835412,28.6010397 L1.5858964,28.6010397 C1.47563126,28.6010397 1.42662453,28.6010397 1.40212116,28.7401799 C1.12033246,30.0683372 0.82629207,31.3838454 0.532251683,32.6993535 C0.532251683,32.6993535 0.532251683,32.6993535 0.532251683,32.7878974 L7.51571087,32.7878974 L7.51571087,38.2902632 C7.51571087,38.2902632 7.51571087,38.4167544 7.51571087,38.48 L10.63989,38.48 C10.63989,38.48 10.63989,38.3914562 10.63989,38.3408597 L10.63989,32.7878974 L13.7028107,32.7878974 C13.708072,32.8214097 13.708072,32.855578 13.7028107,32.8890903 L13.7028107,38.4673509 L16.8269898,38.4673509 C16.8269898,38.4041053 16.8269898,38.3408597 16.8269898,38.2776141 L16.8269898,32.7878974 L18.0521581,32.7878974 C19.374173,32.8214471 20.6908287,32.6027477 21.9359415,32.1427924 C24.6448511,31.317403 26.6161669,28.9039486 26.9468798,26.0079707 C27.3767793,23.3531681 26.2958668,20.6787577 24.1657478,19.126851 Z M10.4489876,9.88244078 L14.576189,9.88244078 C15.5820071,9.84905937 16.5708498,10.1588467 17.3929734,10.7648908 C18.373327,11.4907926 18.8722726,12.7363189 18.6788967,13.9749626 C18.5261124,15.3276736 17.6154082,16.454816 16.3642348,16.8397278 C15.7878962,17.0603206 15.1777095,17.1686885 14.5639421,17.1594561 L10.4,17.1594561 L10.4489876,9.88244078 Z M19.4371659,27.1137278 C18.898506,27.7209606 18.1992865,28.1513136 17.4262468,28.3514006 C16.7738701,28.5272635 16.1013872,28.6105386 15.4272976,28.5989352 L10.4,28.5989352 L10.4,20.8015963 L15.6068439,20.8015963 C16.4870124,20.7810855 17.3609915,20.9584461 18.1683717,21.3214189 C19.5057315,21.8759558 20.3529362,23.2496983 20.2750488,24.7373959 C20.2827795,25.6081979 19.9851159,26.4524059 19.4371659,27.1137278 Z" id="path-1"></path>
    </defs>
    <g id="➕Website" stroke="none" stroke-width="1" fill="none" fill-rule="evenodd">
        <g id="icon-secure" transform="translate(1.000000, 1.000000)">
            <path d="M19.7,31 C19.7,31 22.3,42.3 26.7,43.3 L26.2,44.2 L19.1,43.8 L19.7,31 Z" id="Shape" fill="#231F20" fill-rule="nonzero" opacity="0.1"></path>
            <g id="Group" opacity="0.1" transform="translate(12.000000, 0.000000)"></g>
            <path d="M12.8,47.5 L12.8,22.7 C12.8,10.5 22.6,0.7 34.8,0.7 L46,0.7 C58.2,0.7 68,10.5 68,22.7 L68,47.5 M58,47.5 L58,22.7 C58,16.1 52.6,10.7 46,10.7 L34.8,10.7 C28.2,10.7 22.8,16.1 22.8,22.7 L22.8,47.5" id="Shape" stroke="#12326B" stroke-width="1.73" fill="#FFFFFF" fill-rule="nonzero"></path>
            <path d="M70.3,36.5 L9.7,36.5 C4.8,36.5 0.8,40.5 0.8,45.4 C0.8,45.4 0.8,45.4 0.8,45.4 L0.8,74.6 C0.8,75 0.8,75.5 0.8,75.9 L0.8,76 C0.8,76.4 0.8,76.8 0.9,77.3 C2.2,92.1 14.7,103.4 29.5,103.4 L50.3,103.4 C65,103.4 77.4,92.3 78.9,77.7 C79,77.2 79.1,76.6 79.1,76 L79.1,45.4 C79.2,40.5 75.2,36.5 70.3,36.5 C70.3,36.5 70.3,36.5 70.3,36.5 Z" id="Shape" fill="#FFFFFF" fill-rule="nonzero"></path>
            <path d="M70.3,36.5 L9.7,36.5 C4.8,36.5 0.8,40.5 0.8,45.4 C0.8,45.4 0.8,45.4 0.8,45.4 L0.8,74.6 C0.8,75 0.8,75.5 0.8,75.9 L0.8,76 C0.8,76.4 0.8,76.8 0.9,77.3 C2.2,92.1 14.7,103.4 29.5,103.4 L50.3,103.4 C65,103.4 77.4,92.3 78.9,77.7 C79,77.2 79.1,76.6 79.1,76 L79.1,45.4 C79.2,40.5 75.2,36.5 70.3,36.5 C70.3,36.5 70.3,36.5 70.3,36.5 Z" id="Shape" fill="#FFFFFF" fill-rule="nonzero"></path>
            <path d="M58.8,19.2 C58.8,19.2 62.1,33.8 67.9,35.2 L67.2,36.4 L58,35.9 L58.8,19.2 Z" id="Shape" fill="#F2F2F2" fill-rule="nonzero"></path>
            <path d="M13.5,19.4 C13.5,19.4 16.8,34 22.5,35.4 L21.8,36.6 L12.6,36.1 L13.5,19.4 Z" id="Shape" fill="#F2F2F2" fill-rule="nonzero"></path>
            <path d="M12.8,36 C12.8,33.0444444 12.8,28.6111111 12.8,22.7 C12.8,10.5 22.6,0.7 34.8,0.7 L46,0.7 C58.2,0.7 68,10.5 68,22.7 C68,28.6111111 68,33.0444444 68,36 M58,37 C58,33.8222222 58,29.0555556 58,22.7 C58,16.1 52.6,10.7 46,10.7 L34.8,10.7 C28.2,10.7 22.8,16.1 22.8,22.7 C22.8,29.0555556 22.8,33.8222222 22.8,37" id="Shape-Copy-2" stroke="#12326B" stroke-width="2" fill-rule="nonzero"></path>
            <path d="M10.6,37.4 C10.6,37.4 -1.2,117.5 74.6,87.9 L73.7,91.6 L63.3,99.9 L53.7,103.4 L23.4,103 L13.6,99 L6.2,91.3 L1.3,80.3 L0.8,43.3 L3.4,39.1 L7.4,37.2 L10.6,37.4 Z" id="Shape" fill="#F2F2F2" fill-rule="nonzero"></path>
            <path d="M70.3,36.5 L9.7,36.5 C4.8,36.5 0.8,40.5 0.8,45.4 C0.8,45.4 0.8,45.4 0.8,45.4 L0.8,74.6 C0.8,75 0.8,75.5 0.8,75.9 L0.8,76 C0.8,76.4 0.8,76.8 0.9,77.3 C2.2,92.1 14.7,103.4 29.5,103.4 L50.3,103.4 C65,103.4 77.4,92.3 78.9,77.7 C79,77.2 79.1,76.6 79.1,76 L79.1,45.4 C79.2,40.5 75.2,36.5 70.3,36.5 C70.3,36.5 70.3,36.5 70.3,36.5 Z" id="Shape" stroke="#12326B" stroke-width="1.73" stroke-linecap="square"></path>
            <path d="M70.3,36.5 L9.7,36.5 C4.8,36.5 0.8,40.5 0.8,45.4 C0.8,45.4 0.8,45.4 0.8,45.4 L0.8,74.6 C0.8,75 0.8,75.5 0.8,75.9 L0.8,76 C0.8,76.4 0.8,76.8 0.9,77.3 C2.2,92.1 14.7,103.4 29.5,103.4 L50.3,103.4 C65,103.4 77.4,92.3 78.9,77.7 C79,77.2 79.1,76.6 79.1,76 L79.1,45.4 C79.2,40.5 75.2,36.5 70.3,36.5 C70.3,36.5 70.3,36.5 70.3,36.5 Z" id="Shape-Copy" stroke="#12326B" stroke-width="2" stroke-linecap="square"></path>
            <g id="btc-icon_shadow-blue" transform="translate(26.000000, 49.000000)">
                <g>
                    <mask id="mask-2" fill="white">
                        <use xlink:href="#path-1"></use>
                    </mask>
                    <use id="Shape" fill="#B7C1D2" fill-rule="nonzero" xlink:href="#path-1"></use>
                </g>
            </g>
        </g>
    </g>
</svg>