<?xml version="1.0" encoding="UTF-8"?>
<svg width="94px" height="124px" viewBox="0 0 94 124" version="1.1" xmlns="http://www.w3.org/2000/svg" xmlns:xlink="http://www.w3.org/1999/xlink">
    <!-- Generator: Sketch 51.3 (57544) - http://www.bohemiancoding.com/sketch -->
    <title>icon-global</title>
    <desc>Created with Sketch.</desc>
    <defs>
        <path d="M3.34268027,24.4992644 C3.45435793,24.2151892 3.56871643,23.9334264 3.6861074,23.6539759 C3.77420413,23.4026506 3.84973494,23.1513253 3.9,22.9 C4,22.9 4,22.9 4,22.8 C3.91944731,23.0416581 3.83168492,23.2833161 3.74058457,23.5249742 C4.25819064,22.3057408 4.83485331,21.1307494 5.5,20 C6.5,18.3 7.6,16.6 8.8,15.1 C9.4,14.4 10.2,13.4 10.8,12.7 L10.7,13.1 L10.5,13.3 L10.5,13.4 L10.1,13.9 L9.6,14.5 L9.3,14.9 L8.9,15.4 L8.5,16 L8.6,16 L8.9,15.6 L9.2,15.3 L9.5,14.9 L10,14.2 L10.4,13.7 L10.5,13.6 L10.8,13.3 L11.2,12.9 L11.7,12.3 L12.2,11.8 L12.4,11.5 L12.6,11.3 L12.8,11.1 L13.2,10.7 L13.6,10.3 L13.9,10 L14.4,9.6 L14.6,9.4 L14.4,9.5 L14.9,9.1 L15.1,9 L15,9.1 L15.1,9.1 L15,9.2 L15.1,9.2 L15.3,9.1 L15,9.5 L14.7,9.8 L14.5,10 L14.6,10 L14.3,10.3 L13.7,10.9 L13.2,11.3 L13.4,11.2 L13.3,11.4 L13.1,11.7 L13.2,11.7 L13.6,11.4 L13.9,11.3 L14.3,10.9 L14.9,10.5 L14.6,10.9 L14,11.7 L13.7,12.2 L13.5,12.6 L13.3,12.8 L13.2,12.8 L13,13 L12.7,13.3 L12.6,13.6 L12.7,13.8 L12.7,14 L12.9,14 L12.6,14.2 L12.2,14.3 L11.9,14.4 L11.6,14.7 L11.7,14.9 L12,14.7 L12.4,14.5 L12.6,14.5 L12.5,14.7 L12.7,14.8 L12.4,15.2 L12.2,15.4 L12.2,15.6 L12,15.8 L12.1,15.7 L11.8,15.8 L11.4,15.8 L10.9,16.2 L10.5,16.5 L10.3,16.5 L10.1,16.4 L9.7,16.4 L9.5,16.4 L9.3,16.5 L9,16.9 L8.7,16.9 L8.4,17.2 L8.1,17.6 L7.9,17.6 L7.9,17.8 L7.7,18 L7.4,18.4 L7.1,18.8 L7.5,18.4 L8.2,17.7 L8.7,17.3 L9,17.1 L9.2,17.2 L8.9,17.7 L8.5,18 L8.2,18.7 L8.1,19.1 L8.1,19.4 L8.3,19.4 L8.8,18.9 L9.1,18.8 L8.9,19.2 L8.6,19.5 L8.2,19.9 L8,20 L7.5,20 L7.3,20.1 L7.1,20.3 L6.9,20.6 L6.9,20.5 C7,20.2 7.2,20 7.4,19.8 L7.6,19.8 L7.8,19.6 C7.7,19.6 7.5,19.5 7.4,19.5 L7.1,19.9 L6.8,20.2 L6.7,20.2 L6.5,20.5 L6.4,20.5 L6,21 L5.7,21.7 L5.5,22.1 L5.3,22.1 L5.1,22.4 L5,22.4 L4.6,23.2 L4.4,23.4 L4.2,23.8 L4,24.3 L4.1,23.8 L4,24 L3.8,24.2 L3.7,24.5 L3.6,24.8 L3.4,25.5 L3.3,25.7 L3.1,26.1 L3,26.3 L2.8,26.7 L2.6,27.2 L2.5,27.4 L2.3,28.1 C2.2,28.3 2.1,28.5 2.1,28.7 C2,29.1 1.9,29.4 1.8,29.7 L1.7,30.4 L1.5,31.2 L1.4,31.7 L1.3,32.1 L1.2,32.4 L1.2,32.3 L1.3,31.9 L1.3,31.7 L1.4,31.3 L1.4,31 L1.5,30.7 L1.6,30.4 C1.6,30.3 1.7,30.1 1.7,29.9 L1.8,29.4 L1.9,29 L1.8,29.2 L1.9,28.9 C2.2,27.9 2.6,26.4 3,25.4 C3.02649515,25.3280846 3.05313355,25.2563125 3.07992065,25.1846836 C3.04976658,25.2607168 3.02237916,25.3328625 3,25.4 L3.1,25 C3.2,24.8 3.3,24.5 3.4,24.3 C3.38335621,24.3665752 3.36394226,24.4331503 3.34268027,24.4992644 Z M1.23149534,42.7259814 L1.2,42.6 L1.1,42.6 L1,42.4 L1,42.1 L1,41.5 L1,41 C1,40.8 1,40.6 1,40.3 L1,39.5 C1,39.3 1,39.1 1,38.9 L1,38.2 C1,39.2 1.1,40.5 1.1,41.4 L1.2,42.1 L1.2,42.3 C1.2,42.4010107 1.22550792,42.5275294 1.25075803,42.6537902 C1.26522647,42.6027845 1.28159725,42.5515277 1.3,42.5 C1.2,42.2 1.2,41.9 1.2,41.7 C1.3,41.6 1.4,41.5 1.4,41.4 C1.5,41.3 1.6,41.3 1.6,41.3 C1.5,41.2 1.5,41 1.6,40.8 L1.7,40.8 L1.7,40.9 C1.6,41.6 1.6,42.2 1.8,42.9 C1.9,42.5 1.9,41.2 1.9,41.2 C2,41.3 2.1,41.4 2.1,41.5 C2.1,41.7 2.2,41.8 2.2,42 L2.3,42.3 C2.4,42.3 2.4,42.3 2.5,42.3 C2.6,42.5 2.6,42.5 2.7,42.8 L2.8,42.8 C2.8,42.6 2.8,42.5 2.8,42.4 L3,42.5 C3.1,42.5 3.1,42.5 3.1,42.5 L3.2,42.3 C3.3,42.4 3.3,42.5 3.4,42.6 L3.3,42.8 C3.4,43.2 3.4,43.2 3.5,43.3 L3.6,43.2 L3.7,43.2 C3.7,43.4 3.7,43.5 3.8,43.7 C3.9,43.8 3.9,43.9 3.9,43.9 C4.2,44.3 5.1,45.6 5.1,45.6 L5.2,45.6 L5.5,45.5 L5.6,45.6 C5.7,45.7 5.8,45.8 5.9,45.8 C6.3,46.3 6.6,46.8 6.9,47.3 C6.9,47.5 7,47.8 7,48 L7.2,48 C7.3,48.2 7.3,48.2 7.4,49 C7.3,49.1 7.3,49.2 7.2,49.3 C7.3,49.4 7.3,49.5 7.3,49.6 L7.5,49.6 C7.6,49.5 7.6,49.5 7.5,49.1 L7.6,49.1 L7.7,49.1 C8.1,49.3 8.1,49.3 8.2,49.5 L8.1,49.6 C8,49.7 8,49.8 8,49.9 L8,50.1 L8.3,50.1 L8.2,49.5 C8.5,49.5 8.5,49.5 8.7,49.7 C8.7,49.7 8.8,49.7 8.8,49.7 C8.9,49.7 9.1,49.7 9.8,50.4 L9.7,50.5 C9.7,50.7 9.8,50.8 10.2,50.9 C10.1,50.7 10.1,50.6 10.1,50.5 C10.4,50.5 10.5,50.5 10.7,50.8 C11,50.8 11.2,50.9 11.4,50.9 C12.2,50.5 12.4,51.7 13,52 L13.4,52 C13.9,52.3 14.3,53.4 14.3,53.5 C14.4,53.7 14.4,53.9 14.4,54 C14.4,54.4 14.2,55.1 14.2,55.1 L14.1,55.3 L13.9,55.4 C13.6,56.3 13.6,56.3 13.6,56.3 C13.6,56.6 13.7,56.8 13.8,57 C13.9,57.1 14,57.2 14,57.3 L14.1,57.4 C14.1,57.5 14.2,57.6 14.2,57.7 C14.3,57.9 14.4,58.2 14.4,58.4 C14.4,58.5 14.4,58.5 14.4,58.6 C14.5,58.9 14.6,59.2 14.7,59.5 L14.6,59.6 C14.6,59.8 14.7,60.1 14.8,60.3 L14.7,60.4 C14.8,60.6 14.8,60.9 14.8,61.1 C14.8,61.2 14.9,61.3 14.9,61.4 L14.1,61.3 C14.2,61.4 14.1,61.5 14.1,61.6 L13.8,61.6 C13.6,63 14.8,63.9 15.2,65.1 C15,65 14.9,64.8 14.8,64.7 C14.8,64.9 14.8,65.1 15.7,66.4 C15.6,66.6 15.6,66.6 15,66.3 L15.1,66.3 C15.3,66.5 15.5,66.7 15.8,66.9 L16.1,67.2 L16.2,67.2 L16.4,67.4 L16.5,67.6 C16.6,67.9 16.8,68.1 17,68.3 L16.7,68.3 C16.6,68.4 16.6,68.4 16.6,68.4 C16.6,68.4 16.5,68.4 16.5,68.4 L16.7,68.6 C16.9,68.8 17,68.9 17.2,69.1 L17.4,69.3 L17.5,69.4 C17.5,69.4 17.5,69.4 17.4,69.4 L17.2,69.3 L17,69.2 L17.2,69.5 C17.4,69.7 17.6,69.8 17.8,69.9 L17.7,69.8 L17.9,69.9 C18.2,70.1 18.4,70.4 18.7,70.6 L19.3,71 L19.2,71 L19.4,71.3 L19.5,71.4 C19.8,71.5 20,71.6 20.3,71.8 L20.5,71.9 L20.7,72 C21.1,72.2 21.6,72.5 22,72.7 C22.1,72.8 22.1,72.8 22.1,72.8 L22.3,72.9 L22.8,73.1 L23,73.2 L23.9,73.5 L23.9,73.4 L24.9,73.8 L25.2,73.9 C25.4,73.9 25.6,74 25.8,74.1 L25.7,74.1 L25.5,74.1 L25,73.9 L24.9,73.9 C24.8,73.9 24,73.5 23.2,73.2 L23.1,73.2 L22.6,73 L22.5,72.9 L22.4,72.8 C22.1,72.7 21.7,72.5 21.4,72.3 L21.3,72.2 L20.8,72 L20.7,71.9 C20.2,71.6 19.7,71.3 19.2,71 L18.8,70.8 L19.2,71 L18.5,70.6 L18.2,70.4 L18.4,70.5 L18.5,70.6 L18.9,70.8 C18.1,70.2 18.1,70.2 17.9,70.1 L17.3,69.7 L17.2,69.6 L16.8,69.3 L17.6,69.9 C17.1,69.7 16.7,69.3 16.3,69 C15.9,68.7 15.9,68.7 13.8,66.8 L13.7,66.7 L13.4,66.4 C12.7,65.6 12,64.9 11.3,64.2 L11.2,64.1 C10.9,63.8 10.1,62.7 10.1,62.7 C9.8,62.4 9.6,62 9.4,61.7 L9.3,61.6 L9.2,61.5 C9.1,61.3 9,61.2 8.9,61 L8.8,60.9 L8.8,60.8 L8.7,60.7 L8.5,60.5 C8.4,60.4 8.4,60.4 8.2,60.1 L8.1,60 L8,59.8 L7.9,59.6 L7.7,59.3 C7.4,58.9 7.2,58.6 7,58.2 C5.9,57.3 4.6,54.8 4.1,53.7 C4,53.6 3.9,53.5 3.9,53.4 C3.6,52.6 3.2,51.9 2.9,51.1 L2.8,50.9 C2.6,50.4 2.5,50 2.4,49.5 L2.3,49.2 C2.2,48.9 2.1,48.5 2,48.2 C2,48.1 2,48.1 2,48.1 C1.9,47.8 1.8,47.4 1.8,47.1 C1.8,46.9 1.8,46.7 1.7,46.5 C1.79457903,45.1758936 0.90518689,44.0306911 1.23149534,42.7259814 Z M29.1333333,1.33333333 L28.9,1.4 L29,1.4 L29.125,1.35 L28.9,1.8 L28.8,1.8 L28.5,1.9 L28.4333333,1.93333333 L28.4333333,1.93333333 L28.5,1.9 L28.9,1.8 L29.8,1.6 L29.3,1.8 L29.6,1.7 L30,1.6 L29.6,1.8 L30,1.5 L30.3,1.4 L30.2,1.4 L30.3,1.4 L30.5,1.3 L30.8,1.2 L31,1.2 L31.1,1.2 L31,1.2 L30.5,1.3 L30.9,1.2 C31,1.2 31.2,1.1 31.3,1.1 L31.5,1.1 L32,1 L32.4,1 L32.7,1 L33,0.9 L32.8,0.9 L32.7,0.9 L32.6,0.9 L32.2,1 L32,1 L32.3,1 L32.2,1 L32,1 L31.8,1 L31.9,1 L31.4,1 L31.2,1 L31,1.1 L30.6,1.2 L30.4,1.2 L30.5,1.2 L30.3,1.2 L30.5,1.1 L30.8,1 L31.1,1 L30.9,1 L31.2,0.9 L31.1,0.9 L30.7,0.9 C30.4,1 30.2,1.1 29.9,1.1 L29.8,1.1 L29.7,1.1 L29.8,1.1 L30,1.1 L29.8,1.2 L29.7,1.2 L29.5,1.2 L29.4,1.2 L29.2,1.2 L29.1333333,1.33333333 Z M31.3666667,0.9 L31.3,1.1 L31,1.2 L31.2,1.2 L31.2666667,1.2 L31.25,1.25 L30.8,1.4 C30.5,1.5 30.3,1.5 30,1.6 L29.5,1.7 L29.1,1.9 L29,1.9 L28.8285714,1.94285714 L36.75,0.6 L37,0.6 L36.8,0.6 L37.3,0.7 L36.9,0.7 L36.6,0.7 L37,0.7 L36.7,0.7 L36.4,0.7 L36.5,0.7 L36.2,0.7 L35.9,0.8 L35.4,0.8 L35,0.8 L34.8,0.8 L34.5,0.8 L34.8,0.8 L34.5,0.8 L34.3666667,0.8 L34.7,0.7 L35,0.7 L35.4,0.7 L35.8,0.7 L35.6,0.7 L36.2,0.7 L36,0.7 L35.4,0.7 L35.1,0.7 L35.8,0.6 L36.2,0.6 L36.3,0.6 L36.5,0.6 L36.4,0.6 L36.5,0.6 L36.55,0.6 L36.55,0.6 L36.65,0.6 L36.65,0.6 L36.7,0.6 L36.65,0.6 L36.65,0.6 L36.65,0.6 L36.6,0.6 L36.55,0.6 L36.65,0.6 L36.6,0.6 L36.4,0.6 L36.3,0.6 L36.2,0.6 L36,0.6 L35.8,0.6 L36,0.6 L36.1,0.6 L36.2,0.6 L36.4,0.6 L36.2,0.6 L35.9,0.6 L35.7,0.6 L35.4,0.6 L35.3,0.6 L35.4,0.6 L35.6,0.6 L35.8,0.6 L36.2,0.6 L36.4,0.6 L35.4,0.6 L35.3,0.6 L35.2,0.6 L35.4,0.6 L35.5,0.6 L35.2,0.6 L35,0.6 L34.5,0.7 L34.4,0.7 L34.2,0.7 L34.1,0.7 L34,0.7 L33.4,0.7 L33.2,0.7 L33.1,0.7 L33,0.7 L33.1,0.7 L32.8,0.8 L32.6,0.8 L32.2,0.9 L32,0.9 L31.9,0.9 L31.8,0.9 L31.7,0.9 L31.6,0.9 L31.5,0.9 L31.4,0.9 L31.3666667,0.9 Z M34.3666667,0.8 L34.2,0.85 L34.5,0.8 L34.6,0.8 L34.3666667,0.8 Z M32.5500005,0.962499874 L32.5500004,0.962499895 C32.5500004,0.962499896 32.5500004,0.962499897 32.5500004,0.962499899 Z M28.05,2.1 L28.05,2.1 L28.1,2.1 L27.7,2.2 L28.05,2.1 Z M28.8285714,1.94285714 L28.8,2 L28.6,2.1 L28.5,2.1 L28.4,2.1 L28.3,2.1 L28.05,2.1 Z M36.65,0.6 L36.65,0.6 L36.65,0.6 L36.65,0.6 L36.6,0.6 L36.7,0.6 L36.75,0.6 L37.1,0.6 L37.3,0.6 L37.5,0.6 L37.8,0.6 L37.7,0.6 L37.6,0.6 L38.2,0.7 L38.5,0.7 L38.3,0.7 L38.1,0.7 L38.2,0.7 L38.1,0.7 L38.2,0.7 L38,0.7 L37.7,0.7 L37.4,0.7 L37.3,0.7 L37.1,0.7 C36.9,0.7 36.7,0.8 36.6,0.8 L36.8,0.8 L37,0.8 L37.2,0.8 L37.1,0.8 L36.8,0.9 C37.1,0.9 37.3,0.8 37.6,0.8 C37.5,0.8 37.3,0.9 37.2,0.9 L37,1 C36.8,1 36.6,1.1 36.4,1.1 L36.9,1 L37,1 L37.7,0.9 L37.9,1 C37.8,1.1 37.7,1.2 37.6,1.1 L37.5,1.1 L37.1,1.2 L36.8,1.2 L37,1.2 C36.6,1.3 36.3,1.4 35.9,1.5 L35.8,1.5 C35.7,1.5 35.6,1.5 35.5,1.6 L35.4,1.6 L34.9,1.9 C34.8,2 34.7,2 34.6,2.1 C34.9,2.1 34.9,2.1 35,2.1 C34.9,2.1 34.9,2.2 34.8,2.2 L34.7,2.2 C34.7,2.2 34.6,2.3 34.5,2.3 L34.6,2.3 C34.6,2.4 34.6,2.4 34.6,2.4 L34.5,2.4 C34.3,2.6 34.2,2.7 34,2.8 L33.9,2.8 C34,2.6 34.2,2.6 34.3,2.5 C34.2,2.4 34.2,2.4 34.2,2.4 C34.1,2.4 34,2.5 33.9,2.5 L33.8,2.6 C33.8,2.6 33.8,2.7 33.8,2.7 L33.9,2.7 L33.8,2.9 C33.7,3 33.6,3 33.7,3.1 C33.6,3.1 33.6,3.1 33.5,3.1 C33.3,3.3 33.3,3.3 33.2,3.4 L33.2,3.5 C33.1,3.6 33.1,3.6 33,3.6 L32.9,3.6 L32.7,3.6 C32.2,3.7 32.2,3.7 32.2,3.7 L32.4,3.7 C32.4,3.8 32.4,3.9 32,4 C31.9,3.9 31.9,3.9 31.9,3.9 C31.8,3.9 31.8,4 31.7,4 L31.5,4 L31.7,3.9 L31.5,3.9 L31.4,3.9 C31.4,3.9 31.4,4 31.4,4 L31,4.2 L31.2,4.2 C31.4,4.1 31.4,4.1 31.5,4.1 C31.5,4.2 31.5,4.3 31.4,4.3 L31.3,4.4 C31.2,4.5 31.1,4.5 31,4.6 L30.8,4.6 L30.8,4.5 L30.7,4.5 C30.7,4.5 30.7,4.5 30.5,4.9 C30.7,5.3 30,5.3 29.8,5.5 L29.7,5.5 L29.7,5.4 C29.7,5.3 29.7,5.3 29.9,5.1 C29.7,5.1 29.6,5.2 29.4,5.2 C29.4,5.2 29.3,5.2 29.2,5.3 L29.1,5.4 L29.1,5.8 L29.2,5.8 L29.3,5.8 C29.3,5.8 29.2,5.8 29.3,5.9 C29.4,6 29.4,6 29.4,6 L29.6,6 L29.8,5.8 C29.7,5.9 29.7,5.9 29.4,6 C29.3,6 29.2,6 29.1,6 C28.4,6.2 27.7,6.8 26.9,6.8 L26.9,6.7 C26.8,6.7 26.8,6.7 26.7,6.7 L26.6,6.7 C26.4,6.8 26.3,6.9 26.1,7 L26,7.1 L25.8,7.1 C25.5,7.3 25.6,7.2 25.4,7.3 C25.2,7.4 24.9,7.5 24.8,7.6 C24.7,7.7 24.7,7.7 24.5,7.7 L24.4,7.7 C24.2,7.8 24,8.1 23.7,8 C23.7,7.9 23.7,7.9 23.8,7.7 C23.8,7.7 23.8,7.7 23.7,7.7 C23.6,7.7 23.6,7.8 23.5,7.9 C23.4,7.9 23.3,7.9 23.2,7.9 C22.8,8.2 22.5,8.5 22.1,8.7 L21.7,9.1 C21.5,9.2 21.3,9.5 21,9.5 C20.9,9.5 20.7,9.6 19.5,10.9 L19.4,11 C19.2,11.1 19,11.2 18.8,11.2 C18.8,11.1 18.8,11.1 18.8,11 L18.7,10.8 C18.7,10.7 18.8,10.7 18.8,10.6 C18.7,10.5 18.7,10.5 18.7,10.5 L18.6,10.5 C18.6,10.5 18.5,10.5 18.5,10.5 C18.5,10.4 18.5,10.4 18.5,10.3 L18.4,10.2 C18.6,9.4 19.2,8.7 19.9,8.3 L20.3,8 C20.1,8 20,8.2 19.8,8.2 C19.8,8 19.8,8 20.4,7.6 L20.5,7.6 L20.7,7.5 C20.7,7.4 20.7,7.4 20.7,7.4 L20.5,7.5 C20.5,7.4 20.5,7.4 21.4,6.6 L21.5,6.5 C21.7,6.4 21.8,6.4 22,6.3 C22.2,6.2 22.4,6.1 22.5,6 L22.6,6 L22.8,5.9 L23,5.9 L23.4,5.7 L23.5,5.5 L23.6,5.4 L23.9,5.3 L24,5.3 L24.1,5.2 C24,5.2 24,5.2 24,5.2 L24,5.1 L23.9,5.1 L23.8,5.1 L23.8,5.3 C23.7,5.4 23.6,5.4 23.5,5.5 C23.4,5.5 23.4,5.5 23.1,5.6 C23.2,5.4 23.2,5.4 23.2,5.3 L24.3,4.9 L24.2,5 L24.3,5 L24.4,5 L24.5,5 L24.6,4.9 C24.7,4.9 24.7,4.8 24.8,4.7 C24.8,4.6 24.8,4.6 25.1,4.4 C25,4.4 25,4.4 24.8,4.5 L24.7,4.5 L24.8,4.4 L25,4.3 L25.1,4.3 L25.5,4.1 L25.6,4.1 C25.6,4.1 25.7,4 25.8,4 L25.7,4 L25.9,3.9 L26.2,3.7 L26.5,3.5 L26.6,3.5 L26.7,3.4 L26.9,3.3 L27.4,2.5 L27.5,2.5 L27.6,2.4 L27.7,2.3 L27.8,2.3 L28.2,2.2 L28.3,2.1 L28.4,2 L28.5,2 L28.6,2 L28.7,2 L28.8,2 L28.6,2 L28.8285714,1.94285714 Z M28.35,1.95 L28.2,2 L28.35,1.95 L28.1,2 L27.9,2.1 L28.1,2 L27.9,2.1 L28.1,2 L28,2.1 L28.05,2.1 Z M49.499216,31.0851745 C49.4898644,30.9997293 49.4,30.9947968 49.4,30.9 L49.4,30.8 C49.4,30.8 49.4,30.7 49.4,30.7 C49.2,30.7 49,30.6 48.8,30.5 L48.9,30.5 L49,30.5 C49.2,30.6 49.3,30.6 49.5,30.6 L49.6,30.6 L49.7,30.7 C49.8,30.8 49.8,30.8 49.9,30.8 L50,30.8 L50.1,30.8 L50.2,30.8 C50.3,30.8 50.4,30.8 50.5,30.8 L50.6,30.8 L50.7,30.8 L50.8,30.7 C51,30.5 51.1,30.3 51.1,30 L52.0810415,30.028436 C52.0871548,30.0192678 52.0934708,30.0097937 52.1,30 L52.1,29.9 L52.1,29.7 L52.1,29.6 L52.2,29.4 L52.1,29.2 L52.1,29.1 C52,28.9 52,28.6 52.1,28.4 C52.1,28.3 52.1,28.1 52.1,28 L52.1,27.9 L52,27.8 L51.8,27.8 L51.7,27.9 L51.5,27.9 C51.4,27.8 51.2,27.7 51,27.7 L50.8,27.7 C50.8,27.8 50.8,27.9 50.8,27.9 C50.8,27.9 50.8,27.9 50.8,28 C50.8,28.1 50.8,28.2 50.8,28.2 L50,28.2 L49.8,28 L49.6,28 L49.6,27.9 L49.4,27.7 L49.2,27.5 C49.1,27.4 48.9,27.4 48.8,27.4 L48.7,27.5 L48.7,27.6 C48.7,27.7 48.7,27.8 48.7,27.9 L48.7,28 L48.7,28.1 L48.5,28.1 L48.3,28.1 C48.2,28 48.1,28 48,28 L48,27.9 L47.9,27.8 L47.6,27.6 L47.6,27.5 L47.4,27.5 C47.4,27.5 47.3,27.5 47.3,27.7 C47.3,27.7 47.3,27.8 47.3,27.9 L47.3,28 L47.1,28.2 L47,28.1 C46.9,27.9 46.9,27.8 46.9,27.7 L46.9,27.6 L46.9,27.5 L47,27.4 C47,27.3 47,27.2 47.1,27.2 L47,27.1 L46.9,27 L46.9,27.2 C46.8,27.1 46.8,27 46.7,26.9 C46.7,26.9 46.7,26.8 46.7,26.8 C46.7,26.7 46.7,26.7 46.7,26.6 C46.8,26.2 46.3,26.1 46.3,25.7 L46.5,25.6 L46.4,25.4 L46.3,25.3 C46.3,25.2 46.3,25.1 46.3,25.1 C45.3,24.7 45.3,24.7 45.1,24.9 C45.1,25.1 45.1,25.2 45.1,25.3 L44.7,25.3 C44.6,25.2 44.5,25.2 44.4,25.1 L44.2,25.1 C44.2,25.1 44.2,25.2 44.2,25.3 C44.3,25.5 44.5,25.6 44.7,25.6 C44.9,26.1 44.9,26.2 45.2,26.3 C45.3,26.1 45.3,26 45.3,25.9 C45.5,26 45.6,26.1 45.7,26.3 C45.5,26.3 45.4,26.3 45.3,26.3 C45.3,26.4 45.3,26.5 45.3,26.6 L45.2,26.7 L45,26.7 C44.9,26.7 44.8,26.6 44.7,26.6 L44.5,26.7 L44.5,26.9 C44.5,26.9 44.5,26.9 44.5,27 C44.5,27.1 44.4,27.2 44.3,27.3 L44.1,27.3 C43.9,27.3 43.8,27.2 43.7,27.2 C43.7,27.1 43.7,26.9 43.7,26.8 C43.6,26.6 43.5,26.5 43.3,26.4 L43.2,26.5 C42.9,26.4 42.9,26.4 42.6,26 L42.7,25.7 L42.9,25.8 C42.9,25.6 42.8,25.4 42.7,25.3 C42.2,25.2 42.2,24.9 42.2,24.6 C42,24.4 42,24.4 42.2,23.8 C41.9,23.4 41.3,23.3 41,22.9 L41,22.8 C40.2,22.6 40,21.6 39.1,21.5 C39,21.2 39,21.1 38.6,21.2 C38.6,21.4 38.7,21.5 38.7,21.6 C38.7,21.6 38.7,21.6 38.6,21.7 L38.5,21.8 C38.5,21.9 38.5,22 38.5,22.1 L38.9,22.1 C38.9,22.2 39,22.4 39,22.5 C39,22.5 39.1,22.6 39.1,22.6 C39.7,23 39.7,23 39.6,23.2 C40.2,23.7 40.5,23.7 40.6,23.7 C40.9,24.1 41.4,24.2 41.7,24.5 C41.7,25 41.7,25 41.7,25 C41.5,24.8 41.4,24.7 41.2,24.7 C41,24.7 40.8,24.8 40.7,24.9 C40.7,24.9 40.7,24.9 40.8,25 L41.2,25 C41.2,25 41.2,25.1 41.2,25.3 C40.8,25.6 40.5,26.1 40,26.3 C40,26.5 40,26.7 40,26.8 L39.2,26.8 C38.8,26.7 38.6,26.4 38.3,26.2 L38.4,26.1 C39,26.1 39.7,26 40.3,25.8 C40.3,25.3 39.5,24.5 37.9,23.4 C37.9,23.3 37.8,23.2 37.7,23.1 C37.2,22.9 37.3,22.1 36.6,22 C36.3,22.3 36.2,22.3 36,22.3 L35.8,22.3 C35.6,22.4 35.5,22.6 35.5,22.8 L35.2,22.8 C35,22.8 34.8,22.7 34.6,22.6 L34.4,22.6 C33.7,22.4 33.7,22.8 33.7,23.3 C33.7,23.3 33.7,23.4 33.7,23.4 C33.6,23.6 33.6,23.7 33.5,23.8 C33.5,23.8 32,24 31.8,24.4 C31.4,25 31.4,25 31.4,25.1 C31.5,25.2 31.5,25.3 31.6,25.4 C31.6,25.6 31.5,25.7 31.4,25.8 C30.3,25.8 29.4,26.7 28.5,27 L28.3,27 C28.3,26.8 28.3,26.7 28.2,26.6 L27.8,26.4 C27.6,26.5 27.5,26.5 27.4,26.5 C27.2,26.2 27.1,26.3 26.9,26.3 C26.8,26.4 26.7,26.3 26.6,26.3 C26.6,26 26.6,26 26.8,25.8 L26.8,25.7 C26.8,25.6 26.8,25.5 26.8,25.4 C26.7,25.2 26.7,25.2 27.2,24.4 L27.3,23.7 C27.1,23.2 27.6,22.8 27.3,22.4 L27.4,22.3 C27.6,22.3 27.8,22.3 28,22.2 L28.1,21.9 C28.2,22 28.3,22.1 28.6,22.1 C28.9,22.1 29.3,22.1 29.7,22.2 C29.9,22.5 30.2,22.5 30.5,22.6 L30.7,22.6 C30.8,22.5 31,22.5 31.1,22.4 C31.3,21.9 31.5,21.4 31.6,20.9 C31.5,20.7 31.3,20.6 31.2,20.5 C31.3,20.3 31.3,20 31.2,19.8 C31.1,19.7 31.1,19.7 30.8,19.4 L30.5,19.4 C30.4,19.4 30.3,19.3 30.2,19.2 C30.2,19.1 30.1,19.1 30.1,19 C30.3,18.9 30.3,18.9 30.8,18.8 L30.9,19 C31.2,19 31.4,19.1 31.7,19.1 C31.7,19.1 31.7,19 31.7,19 L31.7,18.6 L31.8,18.4 L31.6,18.3 C31.7,18.2 31.7,18.1 31.8,18 L32,18.1 C32,18.1 32,18.1 32.1,18.2 L32.3,18.2 L32.4,18.3 L32.8,18.3 C32.8,18.2 32.9,18.1 32.9,18 C33.1,18 33.3,18 33.5,18 C33.5,17.8 33.6,17.6 33.7,17.4 L33.9,17.4 C34,17.5 34,17.4 34.1,17.4 C34.5,17 34.6,17 34.9,17 C34.9,16.9 34.9,16.8 34.9,16.7 L34.7,16.6 C34.7,16.5 34.7,16.5 34.7,16.4 L35,16.4 C35,16.4 35,16.4 35.2,16.5 C36.1,15.9 36.1,15.9 36.5,16 L36.8,16 L37,16 L37.2,16 C37.2,16 37.2,15.9 37.2,15.8 L37.1,15.5 L37.2,15.3 C37.2,15.3 37.2,15.2 37.2,15.2 C37.3,14.9 37,14.6 37.1,14.3 C37.2,14.2 37.3,14.2 37.4,14.1 C37.4,14.1 37.4,14.1 37.4,14 L37.4,13.7 C37.5,13.7 37.5,13.7 37.9,13.3 C38,13.4 38,13.4 38.1,14.1 L38.3,14.1 C38.3,14.2 38.3,14.2 38.3,14.3 L38.2,14.4 C38.2666667,14.6 38.3333333,14.6666667 38.4,14.6 C38.5,14.5 38.5,14.5 38.9,14.4 C39,14.4 39,14.5 39.1,14.5 C39.1,14.4 39.2,14.4 39.2,14.3 C39.2,14.2 39.2,14.3 39.1,14.1 C39,13.9 38.9,13.9 38.9,13.7 L38.9,13.6 C38.9,13.6 38.9,13.5 38.9,13.5 C38.9,13.4 38.8,13.4 38.8,13.3 L38.7,13.3 C38.6,13.2 38.6,13.1 38.6,13 C38.6,12.9 38.7,12.9 38.7,12.9 C38.7,12.8 38.5,12.7 38.5,12.6 L41.2,12.7 C41.2,12.7 41.1,12.8 41.1,13 C41,13.1 41,13.1 41,13.3 C41,13.5 40.9,13.6 40.8,13.8 L40.8,13.7 C40.8,13.7 40.8,13.7 41,13.7 L41.1,13.7 C41.1,13.7 41.1,13.8 41.1,13.9 L40.7,13.9 L40.7,14.2 C40.6,14.2 40.6,14.1 40.5,14.2 C40.4,14.3 40.4,14.4 40.3,14.3 L40.2,14.3 L40.1,14.3 C39.9,14.3 39.8,14.4 39.8,14.7 L39.1381344,14.7 C39.1506173,14.9333333 39.0555556,15.1666667 38.9,15.4 C38.8,15.3 38.6,15.3 38.4,15.2 L38,15.2 C38,15.3 38,15.3 38,15.4 C38,15.5 38,15.5 38,15.6 L38.2,15.6 C38.3,15.6 38.4,15.7 38.4,15.8 L38.6,15.8 C38.7,15.8 38.8,15.8 38.8,15.7 C38.8,15.6 38.8,15.6 38.8,15.5 L39.2,15.5 C39.3,15.5 39.4,15.5 39.5,15.4 L39.7,15.4 C39.6,16 40,15.9 41.5,15.2 C41.7,15.4 41.9,15.6 42.2,15.7 L42.2,15.6 C42.1,15.5 42,15.4 42,15.3 C42.2,15.2 42.2,15.2 42.9,15.3 L42.9,15.2 L42.8,15.1 C42.8,15 42.9,14.2 43,13.8 C43,13.7 43.1,13.6 43.2,13.5 L43.4,13.5 C43.4,13.6 43.3,13.7 43.4,13.7 C43.5,13.7 43.5,13.7 43.6,13.8 L43.7,14 L43.9,14 C44,14 44.1,14 44.1,13.9 C44.2,13.8 44.3,13.8 44.4,13.7 C44.4,13.6 44.4,13.6 44.4,13.5 C44.1,13.4 44,13.1 43.8,13 C43.7,13.1 43.6,13.2 43.5,13.3 C43.3,13.3 43.2,13.3 43,13.2 C43,13.1 43,13.1 43,13 L43.3,12.8 L43.2,12.6 L43.3,12.6 L43.5,12.6 L43.5,12.7 C43.5,12.7328209 43.5107721,12.7548697 43.5252453,12.7696819 C43.6312784,12.6254729 43.8156392,12.2078196 44,12.3 C44.5,12 44.7,12.4 45.2,12.2 C45.4,11.8 45.5,12 46,12 L46.1,11.9 L46,11.8 C45.8,11.8 45.7,11.7 45.5,11.7 C45.5,11.6 45.4,11.6 45.4,11.5 C45.3,11.5 45.3,11.6 45.2,11.6 C44.9,11.6 44.6,11.6 44.4,11.6 L44.4,11.7 C44.1,11.9 43.8,11.8 43.5,11.9 L43.4,11.9 C43.4,11.9 42.6,11.4 42.4,11.3 C42.4,11.3 42.4,11.2 42.4,11.1 L42.4,11 C42.4,10.7 42.4,10.4 42.4,10.1 C43.5,9.2 43.5,9.2 43.4,8.9 L43.6,8.9 C43.6,8.8 43.5,8.7 43.5,8.6 C43.4,8.5 43.4,8.4 43.3,8.4 L43.2,8.5 C43.1,8.5 43.1,8.5 42.9,8.3 C42.8,8.3 42.7,8.3 42.6,8.3 C42.6,8.7 42.4,9 42.5,9.3 L42.4,9.4 C42.2,9.4 42.2,9.4 42.1,9.5 C41.9,9.8 41.6,10 41.3,10.1 C41.2,10.3 41.1,10.5 41,10.7 C41,10.9 41,11.2 41,11.5 C41.1,11.6 41.1,11.6 41.2,11.6 C41.2,11.7 41.2,11.7 41.2,11.9 C41.3,11.9 41.6,11.9 41.6,11.9 C41.6,11.9 41.6,12 41.6,12 L41.6,12.2 C41.4,12.3 41.4,12.3 41.4,12.5 C41.3,12.5 41.2,12.5 41.1,12.6 C40.2,12.6 39.3,12.6 38.4,12.5 L38.4,12.4 C38.3,12.3 38.3,12.1 38.1,12.1 C38.1,12.2 38.1,12.2 38.1,12.3 C37.7087932,12.3978017 37.7001933,12.3999517 37.6064552,12.587097 L37.8,12.6 C37.8,12.7 37.6,12.8 37.7,12.7 L37.7,12.8 C37.7,12.9 37.6,12.9 37.6,12.9 C37.5,12.9 37.5,12.9 37.4,12.9 C37.3,12.9 37.3,12.8 37.3,12.9 C37.3,13 37.1,13 37.1,13 L37,13 L36.9,12.9 L36.7,12.9 C36.6,12.8 36.6,12.8 36.6,12.8 L36.3,12.8 L36.3,12.7 C36.3,12.6 36.3,12.6 36.3,12.6 C36.3,12.6 36.3,12.6 36.3,12.5 L37.6064552,12.587097 C37.6043483,12.5913035 37.6021983,12.5956034 37.6,12.6 L36.1,12.6 C36.3,12.5 36.3,12.5 36.3,12.3 C36.1,12.3 36.1,12.3 36,12.2 L36,12.1 C36.2,12 36.2,12 36.2,11.8 C36.3,11.8 36.4,11.8 36.4,11.7 L36.3,11.6 L36,11.6 C36,11.5 36.1,11.4 36.1,11.3 C36.1,11.3 36.2,11.3 36.2,11.3 C36.4,10.8 36.4,10.8 36.4,10.8 C36.4,10.7 36.4,10.7 36.4,10.6 C36.6,10.5 36.9,10.5 37,10.2 L37.4,9.9 L37.5,9.9 C37.6,9.9 37.6,9.8 37.7,9.8 L37.7,9.7 L37.7,9.6 L37.9,9.6 C37.9,9.7 38,9.7 38.1,9.7 C38.4,9.4 38.9,9.4 39,9 L38.8,9 L38.8,8.9 C39,8.8 39.2,8.7 39.4,8.6 C39.4,8.4 39.5,8.2 39.6,8 C39.8,7.9 39.9,7.8 40,7.6 C40.1,7.6 40.1,7.5 40.2,7.5 C40.2,7.3 40.3,7.2 40.3,7.1 C40.6,7 40.6,7 40.7,7 C40.7,7 40.7,6.9 40.7,6.9 C40.5,6.9 40.3,6.9 40.1,7.1 C39.9,7.1 39.9,7.1 39.7,7.2 L39.6,7.2 L39.7,7.1 L39.8,7.1 L39.9,7 C40,6.9 40,6.9 40.2,6.9 L40.3,6.8 L40.2,6.7 C40.2,6.6 40.2,6.6 40.5,6.6 C40.5,6.5 40.5,6.5 40.5,6.4 L40.6,6.4 C40.6,6.4 40.6,6.5 40.6,6.6 L40.9,6.7 L41,6.7 C41,6.7 41,6.6 41,6.6 L40.8,6.5 L40.9,6.4 L41,6.4 L41.1,6 C41.1,6.1 41.2,6.1 41.2,6.2 C41.3,6.2 41.5,6.2 41.3,5.8 C41.3,5.8 41.3,5.7 41.3,5.7 C41.5,5.7 41.6,5.9 41.8,5.9 L42,6.2 C42,6.1 42,6.1 42,5.9 L42.2,5.9 C42.4,6 42.4,6 42.5,6 L42.6,6 C42.6,6 42.6,5.9 42.6,5.9 C42.3,5.9 42.3,5.9 42.3,5.7 C42.4,5.6 42.5,5.6 42.6,5.6 C42.6,5.6 42.7,5.6 42.7,5.6 L42.8,5.6 C42.9,5.5 42.9,5.5 42.9,5.4 C43,5.4 43.1,5.4 43.2,5.3 L43.3,5.3 L43.4,5.5 L43.5,5.5 C43.6,5.6 43.6,5.6 43.6,5.8 C43.6,5.8 43.6,5.7 43.6,5.7 C43.6,5.6 43.5,5.6 43.5,5.5 L43.9,5.5 C43.9,5.6 43.9,5.6 43.9,5.6 L43.9,5.8 C43.9,5.9 43.9,6 44,6 L44.3,6 L44.2,5.8 C44.4,5.8 44.7,5.8 44.9,6 L44.9,6.1 L44.8,6.1 C44.8,6.1 44.8,6.1 44.9,6.2 C45,6.3 45.2,6.4 45.4,6.4 L45.5,6.3 L45.7,6.3 C45.7,6.4 45.8,6.5 45.9,6.5 C45.9,6.5 45.9,6.6 45.9,6.6 L45.9,6.7 C45.9,6.7 45.9,6.7 46,6.6 L46,6.5 C46,6.5 46.1,6.5 46.2,6.5 C46.3,6.6 46.4,6.6 46.5,6.7 L46.6,6.7 C46.8,6.6 47,6.6 47.1,6.7 C47.1,6.7 47.2,6.7 47.3,6.8 L48.4,7.2 C48.4,7.2 49.7,7.9 48.4,8.3 L48.2,8.3 C48,8.2 47.9,8.2 47.7,8.1 C47.5,8.1 47.3,8.1 47.1,8.1 C47.1,8.1 46.2,7.8 46,7.7 C46.2,8.3 47,8.2 47.1,8.8 L47.2,9 L47.4,9 L48.1,9.8 L48.2,9.7 L48.6,9.7 C48.7,9.6 48.7,9.6 48.7,9.5 C48.5,9.4 48.5,9.4 48.3,9.4 C48.3,9.4 48.3,9.4 48.2,9.3 L48.2,9.2 C48,9.1 48,9 48,8.9 C48.1,8.9 48.2,8.9 48.2,8.8 C48.4,9 48.7,9.2 49,9.2 L49.1,9.2 C49.2,9.2 49.4,9.2 49.5,9.2 C49.4,8.9 49.1,8.8 49,8.6 L49.3,8.6 C49.3,8.5 49.3,8.5 49.6,8.4 C49.7,8.3 49.7,8.3 49.7,8.2 C50.2,8.2 50.2,8.2 50.2,8.2 L50.2,8.3 C50.3,8.4 50.3,8.4 50.5,8.4 C50.4,8.3 50.3,8.1 50.3,8 L50.3,7.9 C50.2,7.8 50.1,7.8 50,7.7 C49.8,7.6 49.8,7.5 49.8,7.4 C49.7,7.2 49.5,7 49.4,6.9 L49.3,6.9 C49.3,6.9 49.2,6.8 49.3,6.8 L49.4,6.8 C49.5,6.8 49.6,6.8 49.7,6.9 L49.8,6.9 C49.9,7 50,7 50.1,7 C50.2,7 50.2,7.1 50.3,7.1 L50.5,7.3 C50.4,7.3 50.3,7.3 50.2,7.3 C50.2,7.4 50.2,7.4 50.8,7.8 L50.9,7.8 C51.1,7.7 51.1,7.7 51.2,7.6 L51,7.4 L51.1,7.3 C51.2,7.3 51.2,7.3 51.3,7.3 C51.3,7.1 51.3,7.1 51.5,7.1 L51.6,7.1 L51.6,7 L51.7,7 C51.7,7 51.8,7 51.8,7 L51.8,6.9 L51.9,6.9 L51.9,6.8 C52.2,7.2 52.2,7.2 52.4,7.3 L52.5,7.3 C52.5,7.2 52.4,7.2 52.4,7.1 L52.5,7.1 L52.6,7.1 L52.7,7.1 L52.7,7 C53.1678844,7.49540703 53.620619,8.00596395 54.0561188,8.53167076 C53.6419831,7.91133375 53.1965904,7.32580158 52.7,6.8 L52.8,6.8 L52.9,6.8 L52.9,6.7 L52.9,6.6 L53,6.6 C53.2,6.7 53.3,6.9 53.4,7 L53.5,7 C53.4,7 53.4,6.9 53.4,6.8 C53.4,6.8 53.4,6.8 53.5,6.7 C53.2,6.2 52.4,6.2 52,5.8 L52,5.7 L52.1,5.7 C52.1,5.7 52.2,5.8 52.3,5.8 C52.5,5.9 52.7,6 52.9,6.1 L53.2,6.1 C53.2,6.1 53.3,6.2 53.4,6.2 L53.7,6.2 C54.2,6.6 54.9,6.8 55.5,7 L55.6,7 C55.4,6.8 55.2,6.7 55,6.6 C54.3,6.3 54,6.2 54,6 C54,5.8 53.6,5.6 53.5,5.6 L53.4,5.6 L53.3,5.6 L53.2,5.5 L53.2,5.4 C53.2,5.4 53.3,5.3 53.3,5.3 C53.3,5.3 52.7,4.8 52.5,4.6 L52.6,4.6 L52.6,4.5 L52.8,4.5 C52.9,4.5 53,4.6 53.1,4.6 L53.6,5 C53.6,5 53.5,5 53.5,5 L54,5.4 C54.5,5.6 54.8,5.9 55.2,6.2 L55.3,6.3 C56.8,7.4 56.8,7.4 56.8,7.5 C57.2,7.9 57.2,8.1 57.1,8.1 C57,8.1 56.9,8.1 56.8,8.1 L56.7,8.4 L56.8,8.4 C56.9,8.4 57,8.4 57.1,8.4 C57.2,8.5 57.3,8.5 57.4,8.5 L57.4,8.4 C57.4,8.4 57.3,8.3 57.3,8.3 C57.3,8.2 57.3,8.2 57.3,8.1 L57.4,8.1 C57.4,8.1 56.4,7.2 56.3,7 L56.3,7.1 C56.6,7.1 57.2,7.5 57.2,7.5 L57.3,7.6 C57.5,7.7 57.6,7.8 57.8,7.9 C57.8,7.9 57.8,7.9 57.9,7.8 C57.7,7.7 57.6,7.7 57.5,7.6 C56.9,7.4 56.5,6.8 55.9,6.6 C55.9,6.6 56,6.7 56,6.7 L55.8,6.7 C55.6,6.6 55.3,6.4 55.1,6.2 C55,6.1 55,6.1 54.1,5.5 C54,5.4 53.9,5.3 53.8,5.2 L53.9,5.2 L53.8,5.1 L53.2,4.7 L53.3,4.7 C53.6,4.8 53.9,4.9 54.2,5 L54.4,5.1 C54.7,5.3 55.2,5.3 55.5,5.5 C55.3,5.4 55,5.3 54.8,5.2 L54.7,5.2 C54.5,5.2 54.3,5 54.2,4.9 L54.4,5 C54.3,4.9 54.2,4.8 54,4.8 L53.9,4.7 L53.9,4.6 L54,4.6 L54.2,4.7 L54.4,4.7 C54.7,4.8 54.9,4.9 55.2,5 L55.1,5 C55,4.9 54.8,4.8 54.7,4.8 C54.3,4.6 53.9,4.4 53.5,4.2 L53.6,4.2 L53.5,4.2 L53.5,4.1 C53.5,4.1 53.6,4.1 53.6,4.1 L53.8,4.1 L53.8,4 L53.9,4 L53.8,4 L53.6,3.9 C52.6,3.4 52.6,3.4 52.4,3.2 L52.5,3.2 L52.3,3.1 C52.1,3 52,3 51.9,2.9 L52,2.9 L52.3,3 L52.1,3 L52,2.9 L51.6,2.8 L51.7,2.8 L50.5,2.3 L50.6,2.3 L50.8,2.4 C51,2.5 51.1,2.6 51.3,2.6 L51.7,2.7 L51.9,2.8 L52,2.8 L51.8,2.7 L52,2.8 L51.8,2.7 L51.9,2.7 L52,2.7 L52.8,3.1 L53.4,3.3 L53.5,3.3 L53.8,3.5 L53.9,3.5 C54.1,3.5 54.2,3.6 54.4,3.7 L54.6,3.6 L54.8,3.7 L54.9,3.7 L55.8,4.2 L55.7,4.2 L55.5,4.1 L55.4,4.1 L55.1,4 L55,4 C54.8,3.9 54.6,3.8 54.4,3.7 L54.5,3.7 L54.6,3.7 L55,3.9 L55.3,4 L55,3.9 C55.2,3.9 55.3,4 55.6,4.1 L55.5,4.1 L55.4,4.1 L55.3,4.1 L57.6,5.3 L57.6,5.1 C59.3,6 60.9,7.1 62.5,8.3 C64,9.5 65.5,10.8 66.8,12.2 L67,12.4 C67.0762595,12.5143892 66.5709684,12.6723947 65.5506499,12.8241241 C66.5834416,12.7575658 67.0787829,12.6787829 67,12.6 C68.1,13.9 69.5,15.6 70.5,17 C72.8,20.3 74.5,23.9 75.6,27.7 L76.2,29.7 C76.2998721,29.9996164 71.5122664,30.1994884 62.8333518,30.199999 C62.8444632,30.1999992 62.8555676,30.1999987 62.8666654,30.1999981 L63,30.4 C62.9911121,30.3333409 62.9820638,30.2666695 62.9728555,30.199987 C71.5998821,30.1986828 76.233328,30.0988054 76.2013994,29.7084135 C76.4014008,30.9070051 76.7004671,32.4028027 76.9,33.6 L76.8,33.6 C77,34.5 77,35.8 77.1,36.7 C77.1,36.7 77.1,36.8 77.1,36.8 C77.1,36.9 77.1,37 77.1,37.1 C77.1,37.4 77.1,37.6 77.1,37.9 C77.1,38.3 77.1,38.6 77.1,39 C77.1,39 77,39 77,38.9 C77,38.6 77,38.1 77,37.9 C77,37.7 77,37.5 77,37.2 C77,37.2 77,37.2 77,37.1 C77,37 77,37 76.9,37 C76.8,38 76.8,39.1 76.9,40.1 C77,40.7 77,41.4 76.9,42 L76.9,42.4 C76.8,43.5 76.6,44.6 76.2,45.6 C76.4,43.3 76.4,43.3 76.3,42.9 L76.3,43 C76.2,42.7 76.3,42.5 76.2,42.3 C76.2,42.3 75.9,43.8 75.9,44 C75.9,44.2 75.8,44.4 75.8,44.6 C75.8,44.6 75.8,44.7 75.8,44.8 C75.8,44.9 75.8,44.9 75.8,45 C75.7,45.6 75.7,46.2 75.8,46.8 C75.7,46.9 75.7,47 75.7,47.1 L75.7,47.2 L75.7,47.3 C75.7,47.3 75.7,47.4 75.7,47.4 L75.7,47.6 C75.7,47.6 75.3,49 75.3,49.3 C75.3,49.5 75.3,49.6 75.2,49.8 C75.2,49.3 75.2,48.9 75.3,48.4 L75.5,47.7 C75.5,47.4 75.5,47 75.6,46.7 L75.6,46.6 C75.7,45.9 75.6,45.3 75.7,44.7 C75.7,44.6 75.7,44.6 75.7,44.5 C76.1,41.9 76.2,40.4 75.9,40.1 C75.9,40.1 75.9,40.2 75.9,40.2 C75.9,40.2 75.9,40.3 75.9,40.3 C75.9,40.4 75.9,40.4 75.9,40.5 C75.8,40.6 75.7,40.7 75.7,40.8 L75.6,40.8 C75.3,40.3 75.8,39.6 75.5,39.1 L75.4,39.1 C75.4,39 75.4,38.9 75.4,38.8 C75.4,38.7 75.4,38.7 75.4,38.6 C75.3,38.4 75.3,38.3 75.2,38.1 C75.2,37.5 75.1,37 74.9,36.5 L74.8,36.5 C74.8,36.6 74.8,36.8 74.8,36.9 C74.7,36.9 74.7,36.9 74.6,36.9 C74.6,37.1 74.5,37.2 74.4,37.4 L74.3,37.4 L74.2,37.3 C74.1,37.3 74,37.3 74,37.4 C74,38.1 74,38.1 73.9,38.2 L73.8,38.2 C73.8,38.4 73.7,38.6 73.6,38.7 C73.6,38.7 73.1,41 72.4,41 C72.3,41.2 72.3,41.2 72.3,41.9 C72.2,42.1 72.2,42.4 72.2,42.6 C71.5,45.4 71.5,45.4 71,45.8 L70.8,45.8 L70.7,45.6 C70.6,44.9 70.5,44.1 70.5,43.4 C70.5,43.4 70.5,43.3 70.5,43.3 C70.7,41.9 69.8,40.6 70,39.2 L70,38.8 C70,38.8 70,37.5 69.7,37.3 L69.6,37.3 L69.5,37.5 C69.4,37.5 69.4,37.5 69.2,37.8 C68.7,37.8 68.8,37.2 68.5,37 C68.5,37 68.2,36.6 68.9,36.6 C68.6,36.4 68.5,36.4 68.4,36.4 L68.2,36.4 C68.1,36.3 68.1,36.2 68,36.1 L67.9,36.1 C67.9,35.6 67.1,34.9 67.1,34.9 L66.6,34.9 L66.1,35 L65.3,35 L65.1,34.9 L64.6,34.9 C64.4,34.8 64.3,34.5 64,34.6 L63.6,34.6 C63.3,34.5 63.3,34.2 63.2,34 C63,33.7 63,33.7 62.7,33.3 C62.6,33.4 62.6,33.4 62.6,33.5 C62.5,33.6 62.4,33.5 62.3,33.6 L62.1,33.6 C61.3,33.6 61.2,33.5 60.9,33.1 C60.7,32.9 60.4,32.9 60.3,32.6 C60.2,32.3 60,32.1 59.8,31.9 C59.4,31.5 59.4,31.5 59.4,31.5 C59.4,31.5 58.8,31.3 58.8,31.7 C58.8,32.3 59,32.9 59.2,33.4 C59.9,33.6 60,33.6 60,33.8 C60,34 60,34.2 60,34.4 C60.3,34.5 60.6,34.5 60.9,34.6 L61.1,34.6 L61.3,34.6 C61.4,34.6 61.4,34.6 61.5,34.6 L61.6,34.7 C61.6,34.7 61.6,35.1 61,34.8 L60.5,34.8 C60.4,34.8 60.4,34.8 60.3,34.9 L60.2,34.9 C60.2,35.2 60.4,35.4 60.7,35.5 C60.8,35.4 61,35.2 61.1,35.1 L61.2,35.1 L61.5,35.2 L61.7,35.2 C61.8,35.2 62,35.2 62.1,35.2 C62.2,34.2 62.2,34.2 62.5,34.1 C62.5,34.2 62.6,34.2 62.6,34.3 C62.6,34.6 62.5,34.8 62.6,35 C62.7,35.2 62.8,35.1 62.8,35.2 C62.8,35.3 62.8,35.5 62.9,35.6 L63,35.5 C63,35.5546517 63.0041455,35.6107811 63.0115929,35.6680582 C63.0667558,35.595805 63.3,35.5645246 63.3,35.3 L63.5,35.3 L63.7,35.4 C63.8,35.6 63.5,36 63.8,36 C63.9,36 64.1,36.1 64.2,36.3 C64.3,36.5 64.2,36.6 64.3,36.7 L64.4,36.7 C64.5,36.8 64.6,36.7 64.6,36.8 C64.7,37 64.7,37.1 64.7,37.2 L64.8,37.3 C64.7,37.4 64.7,37.4 64.6,37.4 C64.4,37.4 64.4,37.5 64.4,37.5 C64.3,37.9 64.3,38.2 64.3,38.6 C64.2,38.5 64.2,38.4 64.1,38.4 C63.9,38.4 63.8,38.7 63.8,38.9 C63.7,38.9 63.7,39 63.7,39 L63.6,39.2 L63.4,39.2 C63.3,39.2 63,39 63,39 C62.9,39.2 62.9,39.4 62.8,39.6 C62.6,39.6 62.5,39.6 62.3,39.6 C62.2,39.8 62.1,40.1 62.1,40.3 C61.2,40.2 61.3,40.2 61.1,40.3 C60.9,40.4 60.9,40.3 60.8,40.4 C60.7,40.5 60.7,40.5 60.7,40.8 L60.6,40.9 C60.2,40.8 60.2,40.8 60.1,41 C59.7,41.5 58.8,41.2 58.4,41.9 L58.2,42.2 L58.1,42.2 L58,42.1 L57.3,42.1 C57.1,42.1 57.1,42.1 56.7,42.6 C56.6,42.6 56.5,42.7 56.4,42.7 C56,42.8 55.6,42.5 55.5,42.1 C55.6,41.7 55.6,41.3 55.6,40.9 C54.9,39.1 54.9,39.1 54.6,38.9 C54.5,38.8 54.5,38.8 54.4,38.5 C54.2,38.2 53.9,37.8 53.6,37.6 C53.1,37.4 53.5,36.8 53.3,36.4 C53.3,36.4 52.8,35.5 52.7,35.4 C52.6,35.3 52.3,35.4 52.2,35.2 C52.2,35 52.1,34.8 52.2,34.6 C52.2,34.6 52.2,34.6 52.2,34.5 L51.6,33.2 C51.4,32.9 51.1,32.7 50.9,32.4 L50.8,32.3 C50.7,32.4 50.7,32.6 50.5,32.6 L50.3,32.6 C50.2609849,32.5804925 50.2257753,32.5609849 50.1936287,32.540735 C51.0465962,34.4642343 52.7,37.6 52.7,37.6 C52.7,37.8 52.8,37.9 52.8,38.1 C52.8,38.4 52.8,38.5 52.8,38.6 C52.4,39.9 53.9,41.1 55.7,42.6 C55.7,42.8 55.7,43 55.8,43.2 L56,43.3 C56,43.5 56,43.5 56.2,44.1 C56.5,44.3 56.9,44.3 57.3,44.2 L57.7,44.2 C58.5,44.5 59,43.7 59.7,43.7 C59.9,43.8 59.9,44 59.9,44.2 L60.1,44.2 C59.3,48.7 53.8,49.5 52.5,53.8 C52.7,54.5 52.1,55.3 52.6,56 C52.6,56.5 52.5,57 52.4,57.4 C52.4,57.6 52.4,57.7 52.4,57.9 L52.3,58.3 C51.5,59.8 49.8,60.2 48.6,61.2 C48.7,62.7 48.7,62.7 48.6,63.1 C48.2,63.3 46.9,64 46.9,64 C47.2,65.4 44.4,66.8 44.4,66.8 C44.3,67.1 44.3,67.1 43.3,67.2 L43.2,67.4 C42.8,67.5 42.4,67.5 42,67.5 C41.7,67.6 41.5,67.6 41.3,67.7 L40.4,67.7 C40.1,67.5 40.1,67.5 40.1,67.2 L39.9,67.2 L39.7,67.1 C39.8,67 39.9,66.9 40,66.8 C40.1,66.8 40.1,66.8 40.1,66.7 C39.9,66.4 39.9,66.3 39.9,66.1 C39.3,65.3 38.9,64.4 38.6,63.4 C38.6,63.1 38.6,62.7 38.6,62.4 C38.5,62.3 38.5,62.3 38.3,61.4 C37.8,61.1 37.8,60.9 37.7,60.3 C37.3,60.1 37.3,60.1 37.3,59.4 C37.3,58.2 38.4,57.3 38.4,56.1 C38.2,56 38.1,55.9 38.1,55.5 C38.1,55.5 38.1,55.4 38.1,55.3 L38.2,55.1 C37.3,53.8 37.2,51.9 35.6,51 L35.8,50.9 L36,50.9 C36.2,50.1 36.3,49.4 36.4,48.6 C36.5,48.3 36.5,48 36.5,47.7 L34.4,47.6 C34,47.5 33.8,47.4 33.6,46.4 C33.2,46.1 32.7,46.2 32.2,46.6 C31.2,46.5 30.9,46.5 30.7,47.1 C29.7,47.3 29.3,47.4 29.1,46.9 L28.4,46.9 L28.1,46.9 C27.8,46.9 27.5,46.9 27.2,46.9 C27.1,47.1 27,47.4 27,47.4 C27,47.4 26.2,47.5 24.9,46.3 C24.9,46 24.9,45.8 24.8,45.6 C23.3,45.3 23.3,44.8 23.3,44.1 C23.2,44.1 21.4,43 21.4,41.9 L21.4,41.6 C21.3,41.3 21.3,41 21.2,40.7 C21.7,40.3 21.7,40.3 21.7,40.2 C21.7,39.9 21.7,39.8 21.7,39.7 C21.7,38.1 21.7,38.1 22,37.6 C21.9,37.5 21.9,37.5 21.1,37.3 C21,37.1 21,37 21,36.8 L21.1,36.5 C21.7,36.3 21.7,36.3 21.8,34.9 L22,34.9 L22.4,34.9 L22.6,34.9 C22.9,34 23.4,33.2 23.9,32.5 C24.5,32.4 25,32 25.1,31.4 L25.8,31.4 C25.8,31.3 25.8,31.1 25.8,31 C25.9,30.4 26.1,29.9 26.2,29.4 C26.5,29.3 26.8,29.3 27.1,29.3 C27.1,29 27.2,28.6 27.2,28.3 C27.7,28.4 27.8,28.3 28,28.2 C28.1,27.9 28.2,27.6 28.3,27.3 L28.6,27.3 C29,27.8 29.5,27.6 30,27.7 L30.2,27.7 C31.6,27.1 31.6,27.1 31.6,27 L32.7,27 C33.5,26.1 34.3,26.7 34.7,27.1 C35.5,26.7 35.5,26.7 37.1,26.6 C37.4,26.6 37.6,26.7 37.8,26.8 L37.9,27 C37.4,27.2 37.4,27.2 37.3,27.3 C38,29.6 38,29.6 38.6,29.6 C38.7,29.6 39.9,29.6 40.1,30.4 C40.5,30.6 40.9,30.6 41.4,30.6 C41.8,30.7 41.9,31.1 42.3,31.2 L42.6,31.2 L42.8,31.2 C42.9,31.1 42.9,31.1 42.9,29.7 C44.7,29.7 46.3,30.7 48,30.9 L48.4,30.7 L48.7,30.7 C48.9368781,30.8579187 49.236102,30.9534916 49.499216,31.0851745 Z M56.6385723,13.023663 C56.6340162,13.0157785 56.6294622,13.0078909 56.6249102,13 L53.6,13 C50.5798733,13 47.36992,12.9050867 44.062608,12.807728 C44.2482513,12.9861545 44.4246494,13.1794447 44.7,13.2 C47.5309478,13.4113337 50.5734504,13.1152726 53.2,13.2 L56.6385723,13.023663 Z M43.6,12.8 L43.7,12.8 L43.6,12.8 Z M43.8,12.8 L43.3,12.8 Z M44.88,1.54 L45,1.6 L44.8714286,1.55714286 L44.8,1.7 C44.7,1.7 44.7,1.7 44.6,1.7 L44.4,1.6 L44.2,1.5 L44.3,1.5 L44.2,1.4 L44.3,1.4 L44.7,1.5 L44.8,1.5 C44.8,1.5 44.9,1.5 44.9,1.5 L44.88,1.54 Z M45.9364656,1.23176722 L46,1.2 L45.9364656,1.23176722 C45.8364656,1.2 45.7682328,1.2 45.7,1.2 L45.9142857,1.24285714 L45.8,1.3 L45.5,1.2 L45.4,1.2 L45.5,1.2 L45.4,1.2 L45.8,1.3 L45.9142857,1.24285714 L46.2,1.3 L46.3,1.3 L46.7,1.4 L46.9,1.4 L47.1,1.6 C47.1,1.6 47.2,1.6 47.2,1.6 L47.4,1.6 L47.2,1.6 L47,1.5 L46.6,1.4 C46.4,1.4 46.3,1.3 46.1,1.3 C46.0364656,1.26823278 45.9830227,1.24655712 45.9364656,1.23176722 Z M47.3500001,1.71250003 C47.3000001,1.7 47.25,1.7 47.2,1.7 L47.4,1.7 L47.6,1.7 L47.3,1.6 L47.8,1.7 C48.1,1.7 48.3,1.8 48.6,1.8 C48.8,1.8 49,1.8 49.2,1.9 L49.4,1.9 L49.5,1.9 L49.4,2.1 L49.7,2.2 L49.8,2.2 L49.9,2.2 L49.8,2.2 C49.9,2.3 50.1,2.4 50.2,2.4 L48.9,2 L48.6,2 L48.5,2 L47.9,1.8 L47.85,1.75 L47.9,1.8 L47.8,1.7 L47.7,1.8 L47.3500001,1.71250003 C47.4000001,1.72500004 47.45,1.75000004 47.5,1.8 C47.6,1.8 47.6,1.8 47.7,1.9 L47.8,1.7 L47.85,1.75 Z M72.2,19.6 L72.3,19.7 C72.7,20.5 73.2,21.4 73.5,22.1 C73.1,21.3 72.7,20.4 72.2,19.6 Z M73.5,22.1 L73.9,23 L73.5,22.1 Z M77.1,36.3 C77.1,36.4 77.1,36.6 77.1,36.7 C77.1,36.6 77.1,36.5 77.1,36.3 Z M77.1,35.7 C77.1,36 77.1,36.1 77.1,36.2 C77.1,36 77.1,35.9 77.1,35.7 Z M76.9,33.6 C76.9,33.8 76.9,34.1 77,34.4 L76.9,34.1 L76.9,33.6 Z M28.3,1.9 L28.4,1.9 L28,2 L28.3,1.9 Z M0.9,41.7 C0.9,41.6 0.9,41.7 0.9,41.8 L0.9,42 C0.9,41.9 0.9,41.8 0.9,41.7 Z M0.8,40.4 C0.8,40.8 0.8,41.1 0.8,41.4 C0.8,40.9 0.7,40.4 0.8,39.9 C0.8,40.1 0.8,40.2 0.8,40.4 Z M15.3,8.7 L15.1,8.9 C15,9 14.7,9.2 14.7,9.1 C14.9,9 15.1,8.8 15.3,8.7 Z M24.5,3.4 L25,3.2 L24.5,3.4 L24.1,3.6 L24.3,3.5 L24.5,3.4 Z M72,46.2 C72,46.3 72,46.4 72,46.5 C72,46.7 71.9,46.9 71.8,47.2 C71.5,47.2 71.5,47.2 71.5,47.2 C71.5,47.1 71.4,47 71.4,46.9 C71.4,46.7 71.5,46.5 71.5,46.3 C71.5,46.2 71.6,46.1 71.6,46 C71.6,45.9 71.6,45.9 71.6,45.8 L71.6,45.7 C71.6,45.7 71.6,45.6 71.6,45.6 C71.6,45.5 71.6,45.4 71.6,45.3 L71.7,45.1 L71.8,45 L71.9,45 C71.9,45.3 71.9,45.3 71.9,45.4 C71.9,45.6 72,45.8 72,46 L72,46.1 L72,46.2 Z M74,54.2 L73.7,54.9 L73.5,55.2 C73.6,55.1 73.6,55 73.7,54.9 C73.6,54.9 73.6,54.8 73.7,54.8 C73.6,54.8 73.6,54.8 73.6,54.8 C73.6,54.8 73.5,54.9 73.5,54.9 C73.5,54.9 73.5,54.8 73.5,54.8 C73.6,54.7 73.6,54.7 73.6,54.6 L73.7,54.4 L73.8,54.2 C73.9,54.1 74,54.1 74.1,54 C74.1,54.1 74,54.1 74,54.2 Z M73.7,53.7 L73.7,53.6 L73.7,53.5 L73.7,53.4 L73.8,53.4 L73.8,53.5 L73.8,53.6 L73.7,53.7 Z M76.1,48.3 L75.4,50.5 L74.9,52.3 L75,52 C75,51.8 75.1,51.5 75.2,51.3 L75.2,51.2 L75.2,51.1 C75.4,50.4 75.5,49.7 75.8,49.1 L75.8,49.2 C75.8,49.3 75.8,49.3 75.8,49.4 C75.8,49.3 75.8,49.3 75.8,49.3 C75.9,49.1 75.9,48.9 76,48.7 C76,48.6 76.1,48.4 76.1,48.3 Z M74.3,52.1 L74.1,52.6 C74.1,52.5 74.1,52.4 74.2,52.3 C74.2,52.2 74.2,52.2 74.2,52.2 C74.2,51.8 74.3,51.4 74.5,51 C74.6,51.1 74.6,51.1 74.4,51.6 C74.3,51.7 74.3,51.8 74.3,51.9 C74.3,51.9 74.3,51.9 74.3,52 C74.3,52 74.3,52.1 74.3,52.1 Z M49.9,2.1 L49.8,2.1 L49.9,2.1 C50,2.1 50,2.1 50.1,2.1 L50.2,2.2 L49.9,2.1 Z M50.8,2.5 C50.8,2.5 51.1,2.6 51.2,2.6 L51,2.6 C50.9,2.5 50.9,2.5 50.8,2.5 Z M50.5,6.6 C50.6,6.6 50.7,6.6 50.7,6.7 L50.7,6.9 C50.6333333,6.83333333 50.6,6.83333333 50.6,6.9 C50.6,7 50.7,7 50.6,7 L50.4,7 L50.2,6.7 L50.1,6.6 L50,6.5 L50.3,6.5 L50.4,6.6 C50.5,6.6 50.5,6.6 50.5,6.6 Z M49.2,2.9 L49.2,3 C49.3,3.1 49.3,3.1 49.4,3.2 L49.3,3.2 L49.4,3.3 L49.3,3.3 C49.4,3.4 49.4,3.4 49.4,3.4 L49.2,3.4 C49.2,3.5 49.3,3.5 49.3,3.5 C49.3,3.5 49.1,3.4 49.2,3.5 C49.3,3.5 49.4,3.6 49.5,3.7 L49.4,3.7 L49.4,3.9 L49.3,3.9 C49.4,4 49.5,4 49.6,4.1 C49.7,4.1 49.6,4.1 49.7,4.2 C49.8,4.3 49.8,4.3 49.8,4.4 L50,4.1 L50.1,4.2 C50.2,4.2 50.2,4.3 50.2,4.3 C50.2,4.3 50.3,4.4 50.3,4.4 C50.5,4.6 50.5,4.6 50.5,4.6 C50.6,4.7 50.8,4.8 50.9,4.9 L51.8,5.4 L51.9,5.5 L51.7,5.5 C51.5,5.5 51.4,5.4 51.2,5.4 L50.9,5.4 L50.8,5.3 L50.7,5.2 C50.5,5.1 50.4,5.1 50.2,5 C50.3,5.1 50.3,5.1 50.3,5.1 L50.1,5 C50,5 50,5 50,5 L50,5.2 L49.9,5.2 C49.8,5.1 49.7,5 49.6,4.9 C49.5,4.8 49.5,4.8 49.5,4.8 L49.6,4.8 C49.5,4.7 49.6,4.8 49.5,4.7 C49.4,4.6 49.4,4.5 49.3,4.5 C49.2,4.5 49.3,4.5 49.4,4.5 L49.2,4.3 C49.3,4.3 49.3,4.3 49.4,4.3 L49.3,4.2 C49.1,4.1 49.1,4 49.1,4.1 C49.1,4.2 48.9,4 48.9,4 C48.9,4 48.8,3.9 48.9,3.9 C49,3.9 49,3.9 49.1,3.9 L49,3.8 L48.9,3.8 C48.8,3.7 48.7,3.6 48.6,3.5 C48.6,3.5 48.7,3.5 48.8,3.5 C48.6,3.3 48.6,3.3 48.6,3.3 C48.5,3.2 48.5,3.2 48.5,3.2 L48.7,3.2 C48.5,3 48.5,3 48.5,3 L48.8,3 L48.9,3 C48.9,2.9 48.7,2.9 48.8,2.9 C48.9,2.9 48.9,2.9 48.9,2.9 C48.9,2.8 48.8,2.8 48.7,2.7 L48.8,2.7 C48.9,2.8 49.1,2.8 49.2,2.9 Z M52.1,4.5 C52.2,4.5 52.3,4.5 52.4,4.6 L52.2,4.7 L52.1,4.6 L52.1,4.5 Z M44.4,1.3 L44.3,1.3 L44.4,1.3 L44.3,1.3 C44.4,1.3 44.5,1.3 44.6,1.3 L44.5,1.3 C44.5,1.3 44.9,1.4 45,1.4 L44.8,1.4 L44.6,1.3 L44.4,1.3 Z M45,1.7 L45.2,1.7 L45,1.7 Z M44.2,1.3 L44,1.3 C44,1.3 44,1.3 43.7,1.2 L43.6,1.2 C43.7,1.2 43.8,1.3 43.9,1.3 L43.8,1.3 L44,1.3 L44.2,1.3 L44.1,1.3 L44.2,1.3 L44,1.2 L44.1,1.2 C44.3,1.3 44.3,1.2 44.3,1.2 L44.2,1.2 L44.2,1.3 Z M30.8,12.5 L31,12.5 L30.8,12.6 C30.8,12.6 30.7,12.7 30.7,12.7 L30.7,12.8 C30.7,12.8 30.6,12.8 30.6,12.8 L30.5,12.9 C30.4,12.9 30.4,12.9 30.3,13 L30.2,12.9 C30.2,12.9 30.2,12.8 30.2,12.8 C30.3,12.8 30.3,12.7 30.4,12.7 L30.5,12.6 L30.6,12.6 C30.7,12.6 30.7,12.5 30.8,12.5 Z M33.5,16.6 L34,16.7 L33.8,16.7 C33.8,16.9 33.9,16.9 33.7,16.9 C33.5,16.9 33.5,17 33.5,17 C33.5,17.1 33.5,17.1 33.5,17.1 C33.5,17.2 33.5,17.3 33.6,17.4 L33.6,17.5 C33.6,17.5 33.5,17.5 33.4,17.5 C33.4,17.5 33.4,17.5 33.2,17.6 C33,17.7 32.9,17.7 32.7,17.7 L32.6,17.7 C32.5,17.7 32.4,17.5 32.3,17.5 C32.2,17.5 32.2,17.7 32,17.7 C31.8,17.7 31.6,17.7 31.4,17.7 C31.4,17.8 31.3,17.8 31.3,18 L31,18 C30.8,17.9 30.9,17.9 30.8,17.9 C30.7,17.9 30.7,17.9 30.6,18 C30.3,18.1 30.3,18.1 30.2,18 C30.5,17.9 30.5,17.9 30.6,17.5 C30.7,17.5 30.8,17.5 30.9,17.5 C31,17.5 31,17.4 31.1,17.4 C31.2,17.4 31.4,17.4 31.5,17.4 C31.6,17.3 31.8,17.3 31.6,17.2 C31.4,17.1 31.3,17.3 31.1,17.1 C30.9,16.9 30.7,17.2 30.6,17.1 C30.5,17 30.5,16.9 30.6,16.8 L30.7,16.8 L31,16.6 L31.2,16.6 C31.3,16.5 31.3,16.5 31.3,16.4 C31.1,16.3 30.9,16.4 30.8,16.3 L30.8,16.2 L30.9,16.2 L31,16.1 C31.1,16 31.1,16 31.2,16 C31.4,16 31.5,16.2 31.7,16.1 C31.8,16.1 31.8,16 31.8,15.9 C31.8,15.8 31.9,15.7 31.9,15.6 C31.6,15.5 31.9,15.1 31.7,15 L31.6,15.1 L31.1,15.1 C31.1,14.9 31.1,15 31.1,14.9 C31.1,14.8 31.3,14.9 31.3,14.8 C31.3,14.7 31.2,14.6 31.3,14.5 L31.3,14.4 C31.2,14.5 31.2,14.5 31.2,14.6 C31.1,14.6 31.1,14.6 31,14.6 C31,14.5 31,14.5 31,14.4 C30.9,14.4 30.8,14.4 30.8,14.4 L30.7,14.4 L30.7,14.3 C30.7,14.2 30.9,14.1 31,14.1 C31.1,14.1 31.1,13.9 31.1,13.8 L31.1,13.7 L31.2,13.5 C31.2,13.5 31,13.4 31,13.4 C31,13.4 31,13.1 31.2,13.1 L30.8,13.1 C30.9,13.1 30.8,13.2 30.9,13.2 L31.1,13.2 C31.1,13.1 31.2,13 31.2,12.9 C31.3,12.7 31.3,12.6 31.4,12.5 C31.5,12.5 31.7,12.5 31.8,12.5 L32,12.5 C32.1,12.5 32.2,12.5 32.1,12.6 C32,12.7 31.8,12.8 31.8,12.8 C31.8,12.9 31.8,12.9 31.6,13.1 L32.4,13.1 L32.3,13.5 C32.2,13.7 32,13.6 32,13.8 L32,13.9 C31.8,14 31.8,14 31.6,14.2 C31.7,14.4 31.7,14.4 32,14.4 C32.1,14.4 32.2,14.7 32.2,14.8 L32.2,14.9 C32.3,14.9 32.3,15 32.3,15.1 L32.4,15.1 C32.4,15.1 32.4,15.2 32.4,15.2 C32.7,15.2 32.6,15.3 32.5,15.7 L32.8,15.7 C32.8,16.4 32.8,16.4 32.9,16.3 C33,16.2 33.1,16.1 33.1,16 L33.2,16 C33.3,16 33.4,16 33.4,16.1 C33.4,16.2 33.4,16.3 33.5,16.4 C33.5,16.5 33.5,16.5 33.5,16.6 Z M30.7,15.2 L30.5,15.3 C30.4,15.4 30.3,15.4 30.2,15.4 L30.2,15.6 C30.2,15.7 30.1,15.8 30.1,16 C30.1,16.2 30,16.2 30,16.3 C30,16.4 29.9,16.3 29.9,16.4 C29.9,16.5 29.9,16.5 29.9,16.6 L29.9,16.7 L29.1,16.7 C29.1,16.8 29,16.7 29,16.8 C29,16.9 29,16.9 29,16.9 C29,16.9 28.9,17 28.8,17 C28.7,16.9 28.6,16.9 28.5,17 C28.5,17 28.3,17 28.3,16.9 C28.3,16.8 28.3,16.7 28.3,16.7 C28.3,16.6 28.3,16.7 28.4,16.6 C28.5,16.5 28.5,16.5 28.5,16.4 C28.7,16.2 28.7,16.2 28.9,16.2 L29,15.9 C28.9,15.9 28.8,15.9 28.7,15.9 L28.9,15.2 L29,15.2 C29.1,15.3 29,15.4 29.1,15.3 C29.2,15.2 29.2,15.1 29.3,15.2 C29.4,15.3 29.4,15.2 29.5,15.2 C29.6,15 29.6,14.9 29.7,14.7 C29.9,14.7 29.9,14.7 29.9,14.7 C29.9,14.7 29.9,14.8 29.9,14.8 L30,14.8 L30.1,14.8 C30.2,14.8 30.2,14.7 30.2,14.7 C30.2,14.6 30.3,14.6 30.4,14.6 L30.5,14.7 C30.5,14.7 30.6,14.7 30.6,14.7 C30.7,14.7 30.7,14.8 30.7,14.8 C30.7,14.9 30.6,14.9 30.7,15 C30.8,15 30.8,15.1 30.7,15.2 Z M56.8,57.8 L56.5,59.1 C56.5,59.2 56.3,59.3 56.3,59.4 L56.3,59.5 C56.3,59.6 56.3,59.6 56.3,59.7 C56.2,59.8 56.2,59.8 56.2,59.9 C56.1,60.1 56,60.2 55.9,60.3 C55.8,60.5 55.9,60.9 55.8,61 C55.7,61.1 55.7,61 55.5,61.1 C55.3,61.2 55.2,61.1 55,61.3 C54.8,61.5 54.7,61.9 54.6,62.1 C54.5,62.3 54.3,62.3 54.1,62.6 C53.9,62.9 53.8,63.2 53.6,63.5 C53.3,63.9 52.8,64 52.4,63.8 C52.4,63.8 52.4,63.7 52.4,63.7 C52.2,63.7 52,63.7 51.8,63.7 C51.9,63.6 52,63.4 52,63.2 L52.2,63.1 C52.2,62.9 52.2,62.8 52.2,62.6 L52.2,62.5 C52.2,62.5 52.3,62.4 52.3,62.4 C52.5,62.3 52.3,62.1 52.6,61.8 C52.9,61.5 52.9,61.5 52.9,61.5 C52.9,61.5 53,61.6 53,61.5 C53,61.3 53.1,61.2 53.1,61.1 C53.1,61.1 53,61.1 53,61 C53,60.9 53.1,60.4 53.2,60 C53.3,59.9 53.4,59.8 53.5,59.7 C53.5,59.6 53.5,59.4 53.6,59.3 C53.7,59.2 53.8,59.2 53.9,59.2 C54.2,59.1 54.6,59.3 54.9,59.1 C55,59 55,58.7 55.1,58.7 C55.2,58.7 55.2,58.8 55.3,58.7 C55.3,58.7 55.3,58.6 55.3,58.6 C55.3,58.5 55.4,58.4 55.5,58.3 C56.1,57.9 56.1,57.9 56.2,57.8 C56.2,57.7 56.3,57.5 56.3,57.4 C56.7,57.6 56.8,57.7 56.8,57.8 Z M1.1,37 C1.1,37.1 1.1,37.2 1.1,37.3 C1.1,37.4 1.1,37.5 1,37.6 C1,37.5 1,37.4 1.1,37.3 C1.1,37.3 1.1,37.2 1,37.1 C1,37.1 1,37.1 1,36.8 L1.1,36.8 C1.1,36.8 1.1,36.9 1.1,36.9 L1.1,37 Z M1.3,35.9 L1,35.8 C1.1,35.7 1.1,35.7 1.1,35.5 C1.1,35.3 1.1,35.3 1.1,35.3 C1.1,35.2 1.1,35.1 1.1,35 C1.1,34.8 1.1,34.6 1.1,34.4 C1,34.5 1,34.6 1,34.7 C1,34.4 1,34.1 1.1,33.8 L1.1,33.9 C1.1,33.9 1.1,33.8 1.1,33.8 C1.1,33.9 1.1,33.9 1.1,34 C1.1,34.1 1.1,34.2 1.1,34.3 C1.1,34.5 1.1,34.8 1.1,35.1 L1.2,35.1 C1.3,35.3 1.3,35.6 1.3,35.9 Z M30.3,8.5 L30.1,8.8 C29.9,8.7 29.7,8.7 29.3,8.7 C29.1,8.8 29,8.9 28.9,9 C28.9,9.1 28.7,9.1 28.7,9.1 L28.5,9.2 C28.3,9.4 28.3,9.4 28.2,9.4 C28.1,9.4 28.1,9.3 27.9,9.4 C27.7,9.5 27.7,9.4 27.7,9.3 C27.7,9.2 27.7,9.2 27.6,9.2 L27.5,9.2 C27.4,9.2 27.2,9.2 27.1,9.2 L27,9.2 L27,9 L27.4,8.8 L27.4,8.7 L27.1,8.7 L26.9,8.7 L27,8.5 C27.2,8.4 27.4,8.4 27.6,8.5 C27.6,8.4 27.7,8.4 27.7,8.3 L27.6,8.1 L27.5,8.1 C27.4,8.2 27.3,8.2 27.2,8.2 C27.3,8.2 27.3,8.1 27.3,8.1 C27.5,7.8 27.9,7.7 28.2,7.9 L28.3,7.8 L28.5,7.8 C28.5,7.8 28.5,7.9 28.5,7.9 L28.4,8 L28.3,8.1 L28.5,8.1 C28.7,8 28.9,7.9 29.1,7.9 C29.2,7.9 29.2,7.9 29.3,7.9 C29.4,8 29.3,8 29.5,8 C29.7,8 29.9,7.9 30.1,7.8 C30.1,7.8 30.2,7.8 30.2,7.8 L30.5,7.8 C30.4,8 30.2,8.1 30.1,8.3 C30.2,8.3 30.3,8.4 30.3,8.4 C30.3,8.4 30.3,8.5 30.3,8.5 Z M11.4,17.8 L11.3,18.1 C11.1,18.2 11,18.4 10.7,18.6 C10.5,19 10.4,19.1 10.4,19.1 C10.4,19.1 10.3,19.2 10.3,19.2 C10.3,19.1 10.3,18.9 10.3,18.7 C10.4,18.5 10.4,18.5 10.3,18.5 L9.6,18.4 C9.7,18.2 9.8,18 10,17.8 C10.3,17.4 10.8,17.2 11.1,16.8 C11.3,16.7 11.3,16.4 11.5,16.3 C11.6,16.3 11.6,16.2 11.7,16.2 L11.8,16.2 C11.8,16.4 11.7,16.5 11.6,16.6 C11.5,16.7 11.4,16.7 11.4,16.7 C11.3,16.8 11.2,17 11.1,17.1 C11.1,17.1 11.1,17.2 11.1,17.2 C11.3,17.2 11.3,17.4 11.3,17.4 C11.3,17.4 11.2,17.8 11.4,17.8 Z M9.8,17.1 L9.8,17.2 C9.4,17.6 9.4,17.7 9.3,17.6 L9.4,17.2 C9.4,17.1 9.5,17.1 9.5,17 C9.5,17 9.5,16.9 9.5,16.9 L9.6,16.8 L9.7,16.8 C9.7,16.8 9.7,16.8 9.7,16.9 C9.7,17 9.7,17 9.7,17.1 L9.8,17.1 Z M26.4,2.2 L26.9,2 L27.1,2 L27.3,1.9 L27,2 L26.8,2 L26.7,2 L26.9,2 L27.4,1.9 L27.9,1.8 L28.3,1.7 L28,1.8 L25.9,2.5 L26.2,2.9 L25.8,3.1 L25.9,3.1 L26,2.8 L25.8,2.9 C26,2.9 26.3,2.8 26.5,2.7 L26.4,2.2 Z M19.4,6.1 L19.8,5.9 C19.7,5.9 19.7,5.9 19.2,6.2 L18.9,6.4 L19,6.3 L19.4,6.1 Z M16.6,7.7 L16.7,7.6 L17.1,7.3 L17.2,7.3 L16.4,7.8 L16.6,7.7 Z" id="path-1"></path>
    </defs>
    <g id="➕Website" stroke="none" stroke-width="1" fill="none" fill-rule="evenodd">
        <g id="icon-global" transform="translate(1.000000, 1.000000)">
            <path d="M33.7,74.3 C33.7,74.3 44.2,79.1 58.4,74.6 L58.3,83.9 L76.7,88 C76.7,88 91.1,89.5 91.4,102.3 C91.4,102.3 77,112.7 48.8,113.3 C48.8,113.3 23.3,112.1 2.6,103.4 C2.6,103.4 -0.1,103.2 0.9,99.5 C0.9,99.5 1.4,92.4 10.9,89.3 L33.8,83.9 L33.7,74.3 Z" id="Shape" fill="#FFFFFF" fill-rule="nonzero"></path>
            <path d="M49.7,91.6 C49.7,91.6 54.2,111.4 83.2,105.9 C83.2,105.9 71.1,109.6 71.1,110 C71.1,110.4 61.9,112 61.5,112.2 C61.1,112.4 54.7,112.5 54.7,112.5 L49.7,91.6 Z" id="Shape" fill="#F2F2F2" fill-rule="nonzero"></path>
            <path d="M45.9,90.2 L48.9,83 L47.9,79.4 L38.9,79.4 L37.5,83.2 L41.2,90.2 L36.5,112.8 L36.7,113.1 C37.8,111.8 39.6,111.6 41,112.5 C42,112.9 43,113.2 44.1,113.4 C45.5,113.7 46.9,114.4 48,115.4 C48.3,115.7 48.7,116.1 48.9,116.5 L52,112.7 L45.9,90.2 Z" id="Shape" fill="#F2F2F2" fill-rule="nonzero"></path>
            <polygon id="Shape" stroke="#12326B" stroke-width="2" fill="#D0D6E1" fill-rule="nonzero" stroke-linecap="square" points="40.2 82.9 43.8 89.9 48.6 89.9 51.6 82.7 50.5 79.1 41.5 79.1"></polygon>
            <polygon id="Shape" fill="#FFFFFF" fill-rule="nonzero" points="42.3 76.6 38.4 86.7 33.7 83.9 33.9 74.9"></polygon>
            <polygon id="Shape" fill="#FFFFFF" fill-rule="nonzero" points="48.6 76.3 52.5 86.3 58.4 83.6 58.2 74.6"></polygon>
            <polyline id="Shape" stroke="#12326B" stroke-width="2" stroke-linecap="square" points="33.7 83.9 33.7 71.5 58.2 71.5 58.2 83.9"></polyline>
            <circle id="Oval" fill="#FFFFFF" fill-rule="nonzero" cx="46" cy="38.5" r="38"></circle>
            <circle id="Oval" stroke="#12326B" stroke-width="0.93" fill="#D0D6E1" fill-rule="nonzero" stroke-linecap="square" cx="46" cy="38.5" r="38"></circle>
            <path d="M69.2,68.8 C49.1,74.9 27.9,63.5 21.8,43.4 C17.2,28.2 22.5,11.8 35.1,2.2 C35.1,2.2 5.3,9.3 8.2,44.7 C8.2,44.7 13.6,75.8 47.8,76.5 C47.8,76.5 60.9,74.8 67.7,70" id="Shape-Copy" fill="#B7C1D2"></path>
            <g id="Group" transform="translate(7.000000, 0.000000)">
                <mask id="mask-2" fill="white">
                    <use xlink:href="#path-1"></use>
                </mask>
                <use id="Mask" fill="#FFFFFF" fill-rule="nonzero" xlink:href="#path-1"></use>
                <path d="M62.2,68.8 C42.1,74.9 20.9,63.5 14.8,43.4 C12.3633808,35.3485625 12.7045225,26.9604267 15.4370023,19.4245861 C17.8630663,12.7338024 -1.7,9.3 1.2,44.7 C1.2,44.7 6.6,75.8 40.8,76.5 C40.8,76.5 53.9,74.8 60.7,70" id="Shape" fill="#F2F2F2" fill-rule="nonzero" mask="url(#mask-2)"></path>
            </g>
            <path d="M34.2,75.5 C36.8,78.7 38.2,82.6 38.3,86.7 L40.5,81.7 L42.2,76.7 L34.2,75.5 Z" id="Shape" fill="#F2F2F2" fill-rule="nonzero"></path>
            <path d="M13,89.4 C13,89.4 9.8,107.5 33.8,111.3 L23.2,110.1 L2.8,104.2 L0.6,101.3 C1.6,95.1 6.6,90.2 13,89.4 Z" id="Shape" fill="#F2F2F2" fill-rule="nonzero"></path>
            <path d="M57.5,75.4 C57.5,75.4 51.8,80 53.9,85.6 L53.3,86.7 L50.2,78.3 C50.2,78.3 48.9,76.5 51.1,76.3 L57.5,75.4 Z" id="Shape" fill="#F2F2F2" fill-rule="nonzero"></path>
            <path d="M0.6,102.3 C1.1,92.6 7.8,90.2 14,88.4 C20.5,86.5 27.1,85.1 33.8,84 L38.7,86.9 L42.3,77.1" id="Shape" stroke="#12326B" stroke-width="1.65" stroke-linecap="round" stroke-linejoin="round"></path>
            <path d="M0.8,103 C55.5,125.4 91.5,102.3 91.5,102.3 C91,92.6 84.3,90.2 78.1,88.4 C71.6,86.5 65,85 58.3,83.9 L53.3,86.7 L49.6,76.7" id="Shape" stroke="#12326B" stroke-width="2" stroke-linecap="round" stroke-linejoin="round"></path>
            <polygon id="Shape" stroke="#12326B" stroke-width="2" fill="#D0D6E1" fill-rule="nonzero" stroke-linecap="square" points="43.8 89.9 39.1 112.5 46.9 121.5 54.2 112.7 48.6 89.9"></polygon>
            <path d="M75.6,88.2 C75.6,88.2 71,94.6 75,108.8" id="Shape" stroke="#12326B" stroke-width="2" stroke-linecap="round" stroke-linejoin="round"></path>
            <path d="M17.1,87.7 C17.1,87.7 21.7,94.1 17.7,108.2" id="Shape" stroke="#12326B" stroke-width="2" stroke-linecap="round" stroke-linejoin="round"></path>
            <circle id="Oval" stroke="#12326B" stroke-width="2" stroke-linecap="square" cx="46" cy="38.5" r="38"></circle>
            <path d="M43.1,96.3 C43.1,96.3 42.1,114.8 53.3,112.6 L52.3,115.5 L47.2,120.9 L39.2,112.5 L43.1,96.3 Z" id="Shape" fill="#BEC3CD" opacity="0.5" style="mix-blend-mode: multiply;"></path>
            <path d="M44.4,79.4 C44.4,79.4 44.2,87.4 49.3,87.1 L48.5,89.9 L43.7,89.9 L40,82.9 L41.6,78.6 L44.4,79.4 Z" id="Shape" fill="#BEC3CD" opacity="0.5" style="mix-blend-mode: multiply;"></path>
        </g>
    </g>
</svg>