<?xml version="1.0" encoding="UTF-8"?>
<svg width="118px" height="101px" viewBox="0 0 118 101" version="1.1" xmlns="http://www.w3.org/2000/svg" xmlns:xlink="http://www.w3.org/1999/xlink">
    <!-- Generator: Sketch 52.2 (67145) - http://www.bohemiancoding.com/sketch -->
    <title>icon-built</title>
    <desc>Created with Sketch.</desc>
    <g id="✅-Website" stroke="none" stroke-width="1" fill="none" fill-rule="evenodd">
        <g id="icon-built" transform="translate(1.000000, 0.000000)">
            <path d="M31.3,54.9 L31.3,46.7 C31.3,46.1 30.9,45.7 30.3,45.7 L13.7,45.7 C13.1,45.7 12.7,46.1 12.7,46.7 L12.7,54.8" id="Shape" stroke="#12326B" stroke-width="2" fill="#D0D6E1" fill-rule="nonzero" stroke-linecap="square"></path>
            <path d="M51,10.7 L51,2.5 C51,1.9 51.4,1.5 52,1.5 L68.7,1.5 C69.3,1.5 69.7,1.9 69.7,2.5 L69.7,10.7" id="Shape" stroke="#12326B" stroke-width="1.76" fill="#FFFFFF" fill-rule="nonzero" stroke-linecap="square"></path>
            <path d="M87,10.7 L87,2.5 C87,1.9 87.4,1.5 88,1.5 L104.7,1.5 C105.3,1.5 105.7,1.9 105.7,2.5 L105.7,10.7" id="Shape" stroke="#12326B" stroke-width="1.76" fill="#FFFFFF" fill-rule="nonzero" stroke-linecap="square"></path>
            <path d="M51,10.7 L51,2.5 C51,1.9 51.4,1.5 52,1.5 L68.7,1.5 C69.3,1.5 69.7,1.9 69.7,2.5 L69.7,10.7" id="Shape" stroke="#12326B" stroke-width="1.76" fill="#12326B" fill-rule="nonzero" opacity="0.1" stroke-linecap="square"></path>
            <path d="M87,10.7 L87,2.5 C87,1.9 87.4,1.5 88,1.5 L104.7,1.5 C105.3,1.5 105.7,1.9 105.7,2.5 L105.7,10.7" id="Shape" stroke="#12326B" stroke-width="1.76" fill="#12326B" fill-rule="nonzero" opacity="0.1" stroke-linecap="square"></path>
            <path d="M1.7,55.3 L74.4,55.3 C75,55.3 75.4,55.8 75.4,56.3 L75.4,98.3 C75.4,98.9 74.9,99.3 74.4,99.3 L1.7,99.3 C1.1,99.3 0.7,98.8 0.7,98.3 L0.7,56.3 C0.6,55.8 1.1,55.3 1.7,55.3 Z" id="Shape" stroke="#12326B" stroke-width="1.76" fill="#FFFFFF" fill-rule="nonzero" stroke-linecap="square"></path>
            <path d="M1.7,55.3 L74.4,55.3 C75,55.3 75.4,55.8 75.4,56.3 L75.4,98.3 C75.4,98.9 74.9,99.3 74.4,99.3 L1.7,99.3 C1.1,99.3 0.7,98.8 0.7,98.3 L0.7,56.3 C0.6,55.8 1.1,55.3 1.7,55.3 Z" id="Shape" stroke="#12326B" stroke-width="1.76" fill="#12326B" fill-rule="nonzero" opacity="0.1" stroke-linecap="square"></path>
            <path d="M14.2,46.1 C14.2,46.1 23.8,54.5 32,54 L31.3,55.7 L13.3,56 L13.2,47.1 L14.2,46.1 Z" id="Shape" fill="#12326B" fill-rule="nonzero" opacity="0.1"></path>
            <path d="M51,10.7 L51,2.5 C51,1.9 51.4,1.5 52,1.5 L68.7,1.5 C69.3,1.5 69.7,1.9 69.7,2.5 L69.7,10.7" id="Shape" stroke="#12326B" stroke-width="1.7" fill="#FFFFFF" fill-rule="nonzero" stroke-linecap="square"></path>
            <path d="M52,1.3 C52,1.3 61.7,9.7 69.8,9.2 L69.1,10.9 L51.1,11.2 L51,2.3 L52,1.3 Z" id="Shape" fill="#F2F2F2" fill-rule="nonzero"></path>
            <path d="M51,10.7 L51,2.5 C51,1.9 51.4,1.5 52,1.5 L68.7,1.5 C69.3,1.5 69.7,1.9 69.7,2.5 L69.7,10.7" id="Shape-Copy" stroke="#12326B" stroke-width="2" stroke-linecap="square" fill-rule="nonzero"></path>
            <path d="M1.7,55.3 L74.4,55.3 C75,55.3 75.4,55.8 75.4,56.3 L75.4,98.3 C75.4,98.9 74.9,99.3 74.4,99.3 L1.7,99.3 C1.1,99.3 0.7,98.8 0.7,98.3 L0.7,56.3 C0.6,55.8 1.1,55.3 1.7,55.3 Z" id="Shape" stroke="#12326B" stroke-width="1.7" fill="#D0D6E1" fill-rule="nonzero" stroke-linecap="square"></path>
            <path d="M2.7,55.3 C2.7,55.3 21.2,97.8 75.5,96.8 L75.3,99.3 L0.6,99.1 L0.8,56.8 L0.6,55.3 L2.7,55.3 Z" id="Shape" fill="#B7C1D2"></path>
            <path d="M1.7,55.3 L74.4,55.3 C75,55.3 75.4,55.8 75.4,56.3 L75.4,98.3 C75.4,98.9 74.9,99.3 74.4,99.3 L1.7,99.3 C1.1,99.3 0.7,98.8 0.7,98.3 L0.7,56.3 C0.6,55.8 1.1,55.3 1.7,55.3 Z" id="Shape-Copy-3" stroke="#12326B" stroke-width="2" stroke-linecap="square" fill-rule="nonzero"></path>
            <path d="M87,10.7 L87,2.5 C87,1.9 87.4,1.5 88,1.5 L104.7,1.5 C105.3,1.5 105.7,1.9 105.7,2.5 L105.7,10.7" id="Shape" stroke="#12326B" stroke-width="1.7" fill="#FFFFFF" fill-rule="nonzero" stroke-linecap="square"></path>
            <path d="M41.8,11 L114.5,11 C115.1,11 115.5,11.5 115.5,12 L115.5,54 C115.5,54.6 115,55 114.5,55 L41.8,55 C41.2,55 40.8,54.5 40.8,54 L40.8,12 C40.7,11.5 41.2,11 41.8,11 Z" id="Shape" stroke="#12326B" stroke-width="1.7" fill="#FFFFFF" fill-rule="nonzero" stroke-linecap="square"></path>
            <path d="M42.8,11.3 C42.8,11.3 61.3,53.8 115.6,52.8 L115.4,55.3 L40.7,55.1 L41,12.8 L40.8,11.3 L42.8,11.3 Z" id="Shape" fill="#F2F2F2" fill-rule="nonzero"></path>
            <path d="M88.3,0.9 C88.3,0.9 98,9.3 106.1,8.8 L105.4,10.5 L87.4,10.8 L87.3,1.9 L88.3,0.9 Z" id="Shape" fill="#F2F2F2" fill-rule="nonzero"></path>
            <path d="M41.8,11 L114.5,11 C115.1,11 115.5,11.5 115.5,12 L115.5,54 C115.5,54.6 115,55 114.5,55 L41.8,55 C41.2,55 40.8,54.5 40.8,54 L40.8,12 C40.7,11.5 41.2,11 41.8,11 Z" id="Shape" stroke="#12326B" stroke-width="2" stroke-linecap="square" fill-rule="nonzero"></path>
            <path d="M87,10.7 L87,2.5 C87,1.9 87.4,1.5 88,1.5 L104.7,1.5 C105.3,1.5 105.7,1.9 105.7,2.5 L105.7,10.7" id="Shape-Copy-2" stroke="#12326B" stroke-width="2" stroke-linecap="square" fill-rule="nonzero"></path>
        </g>
    </g>
</svg>