<?xml version="1.0" encoding="UTF-8"?>
<svg width="128px" height="97px" viewBox="0 0 128 97" version="1.1" xmlns="http://www.w3.org/2000/svg" xmlns:xlink="http://www.w3.org/1999/xlink">
    <!-- Generator: Sketch 52.2 (67145) - http://www.bohemiancoding.com/sketch -->
    <title>investment copy</title>
    <desc>Created with Sketch.</desc>
    <g id="✅-Website" stroke="none" stroke-width="1" fill="none" fill-rule="evenodd">
        <g id="investment-copy">
            <path d="M35.5094527,92.9052632 C36.0781095,94.1684211 35.0039801,95.2421053 33.1084577,95.3052632 L3.28557214,95.3052632 C1.51641791,95.3052632 0.505472637,94.2315789 0.884577114,92.9052632 L7.64527363,76.4210526 C8.34029851,74.7157895 9.41442786,74.0210526 10.6781095,74.0210526 L25.9686567,74.0210526 C27.2955224,74.0210526 28.3064677,74.9052632 28.8119403,76.4210526 L35.5094527,92.9052632 Z" id="Shape" fill="#D0D6E1"></path>
            <path d="M70.7661692,92.9052632 C71.3348259,94.1684211 70.2606965,95.2421053 68.3651741,95.3052632 L38.5422886,95.3052632 C36.8363184,95.3052632 35.7621891,94.2315789 36.1412935,92.9052632 L42.90199,76.4210526 C43.5970149,74.7157895 44.6711443,74.0210526 45.9348259,74.0210526 L61.2253731,74.0210526 C62.5522388,74.0210526 63.5631841,74.9052632 64.0686567,76.4210526 L70.7661692,92.9052632 Z" id="Shape" fill="#D0D6E1"></path>
            <path d="M106.08607,92.9052632 C106.654726,94.1684211 105.580597,95.2421053 103.685075,95.3052632 L73.8621891,95.3052632 C72.1562189,95.3052632 71.0820896,94.2315789 71.461194,92.9052632 L78.2218905,76.4210526 C78.9169154,74.7157895 79.9910448,74.0210526 81.2547264,74.0210526 L96.5452736,74.0210526 C97.8721393,74.0210526 98.8830846,74.9052632 99.3885572,76.4210526 L106.08607,92.9052632 Z" id="Shape" fill="#D0D6E1"></path>
            <path d="M53.3273632,71.6210526 C53.8960199,72.8842105 52.8218905,73.9578947 50.9263682,74.0210526 L21.1034826,74.0210526 C19.3975124,74.0210526 18.3233831,72.9473684 18.7024876,71.6210526 L25.4631841,55.1368421 C26.158209,53.4315789 27.2323383,52.7368421 28.4960199,52.7368421 L43.7865672,52.7368421 C45.1134328,52.7368421 46.1243781,53.6210526 46.6298507,55.1368421 L53.3273632,71.6210526 Z" id="Shape" fill="#D0D6E1"></path>
            <path d="M88.5208955,71.5578947 C89.0895522,72.8210526 88.0154229,73.8947368 86.1199005,73.9578947 L56.2970149,73.9578947 C54.5910448,73.9578947 53.5169154,72.8842105 53.8960199,71.5578947 L60.6567164,55.0736842 C61.3517413,53.3684211 62.4258706,52.6736842 63.6895522,52.6736842 L78.9800995,52.6736842 C80.3069652,52.6736842 81.3179104,53.5578947 81.8233831,55.0736842 L88.5208955,71.5578947 Z" id="Shape" fill="#D0D6E1"></path>
            <path d="M71.2716418,50.1473684 C71.8402985,51.4105263 70.7661692,52.4842105 68.8706468,52.5473684 L39.0477612,52.4842105 C37.341791,52.4842105 36.2676617,51.4105263 36.6467662,50.0842105 L43.4706468,33.6 C44.1656716,31.8947368 45.239801,31.2 46.5034826,31.2 L61.7940299,31.2631579 C63.1208955,31.2631579 64.1318408,32.1473684 64.6373134,33.6631579 L71.2716418,50.1473684 Z" id="Shape" fill="#D0D6E1"></path>
            <path d="M116.953731,95.3684211 C116.637811,95.6842105 116.069154,95.6210526 115.816418,95.2421053 L73.6094527,44.7157895 C73.2935323,44.4 73.3567164,43.8315789 73.7358209,43.5789474 L90.6691542,36.8842105 C91.0482587,36.5684211 91.5537313,36.6315789 91.8064677,37.0105263 L126.68408,78.7578947 C127,79.0736842 126.936816,79.6421053 126.557711,79.8947368 L116.953731,95.3684211 Z" id="Shape" fill="#D0D6E1"></path>
            <path d="M91.8696517,37.2 C91.8696517,37.2 92.6278607,63.8526316 110.193035,88.4210526 L73.6726368,44.8421053 L73.799005,43.7052632 L91.4273632,36.8210526" id="Shape" fill="#B7C1D2"></path>
            <path d="M116.953731,95.3684211 C116.637811,95.6842105 116.069154,95.6210526 115.816418,95.2421053 L73.6094527,44.7157895 C73.2935323,44.4 73.3567164,43.8315789 73.7358209,43.5789474 L90.6691542,36.8842105 C91.0482587,36.5684211 91.5537313,36.6315789 91.8064677,37.0105263 L126.68408,78.7578947 C127,79.0736842 126.936816,79.6421053 126.557711,79.8947368 L116.953731,95.3684211 Z" id="Shape" stroke="#12326B" stroke-width="1.25901632" stroke-linecap="round"></path>
            <path d="M44.6079602,32.7789474 C44.6079602,32.7789474 51.0527363,50.8421053 70.8925373,50.8421053 L70.3238806,52.0421053 L67.8597015,52.7368421 L39.0477612,52.4842105 L36.520398,51.0947368 L37.0890547,47.6842105 L44.6079602,32.7789474 Z" id="Shape" fill="#B7C1D2"></path>
            <path d="M71.2716418,50.1473684 C71.8402985,51.4105263 70.7661692,52.4842105 68.8706468,52.5473684 L39.0477612,52.4842105 C37.341791,52.4842105 36.2676617,51.4105263 36.6467662,50.0842105 L43.4706468,33.6 C44.1656716,31.8947368 45.239801,31.2 46.5034826,31.2 L61.7940299,31.2631579 C63.1208955,31.2631579 64.1318408,32.1473684 64.6373134,33.6631579 L71.2716418,50.1473684 Z" id="Shape" stroke="#12326B" stroke-width="1.25901632" stroke-linecap="round"></path>
            <path d="M26.6636816,54.3157895 C26.6636816,54.3157895 33.1084577,72.3789474 52.9482587,72.3789474 L52.379602,73.5789474 L49.9154229,74.2736842 L21.1034826,74.0210526 L18.5761194,72.6315789 L19.1447761,69.2210526 L26.6636816,54.3157895 Z" id="Shape" fill="#B7C1D2"></path>
            <path d="M53.3273632,71.6210526 C53.8960199,72.8842105 52.8218905,73.9578947 50.9263682,74.0210526 L21.1034826,74.0210526 C19.3975124,74.0210526 18.3233831,72.9473684 18.7024876,71.6210526 L25.4631841,55.1368421 C26.158209,53.4315789 27.2323383,52.7368421 28.4960199,52.7368421 L43.7865672,52.7368421 C45.1134328,52.7368421 46.1243781,53.6210526 46.6298507,55.1368421 L53.3273632,71.6210526 Z" id="Shape" stroke="#12326B" stroke-width="1.25901632" stroke-linecap="round"></path>
            <path d="M61.4149254,54.6947368 C61.4149254,54.6947368 67.8597015,72.7578947 87.6995025,72.7578947 L87.1308458,73.9578947 L84.6666667,74.6526316 L55.8547264,74.4 L53.3273632,73.0105263 L53.8960199,69.6 L61.4149254,54.6947368 Z" id="Shape" fill="#B7C1D2"></path>
            <path d="M8.59303483,75.9157895 C8.59303483,75.9157895 15.0378109,93.9789474 34.8776119,93.9789474 L34.3089552,95.1789474 L31.8447761,95.8736842 L3.03283582,95.6210526 L0.505472637,94.2315789 L1.07412935,90.8210526 L8.59303483,75.9157895 Z" id="Shape" fill="#B7C1D2"></path>
            <path d="M35.5094527,92.9052632 C36.0781095,94.1684211 35.0039801,95.2421053 33.1084577,95.3052632 L3.28557214,95.3052632 C1.51641791,95.3052632 0.505472637,94.2315789 0.884577114,92.9052632 L7.64527363,76.4210526 C8.34029851,74.7157895 9.41442786,74.0210526 10.6781095,74.0210526 L25.9686567,74.0210526 C27.2955224,74.0210526 28.3064677,74.9052632 28.8119403,76.4210526 L35.5094527,92.9052632 Z" id="Shape" stroke="#12326B" stroke-width="1.25901632" stroke-linecap="round"></path>
            <path d="M88.5208955,71.5578947 C89.0895522,72.8210526 88.0154229,73.8947368 86.1199005,73.9578947 L56.2970149,73.9578947 C54.5910448,73.9578947 53.5169154,72.8842105 53.8960199,71.5578947 L60.6567164,55.0736842 C61.3517413,53.3684211 62.4258706,52.6736842 63.6895522,52.6736842 L78.9800995,52.6736842 C80.3069652,52.6736842 81.3179104,53.5578947 81.8233831,55.0736842 L88.5208955,71.5578947 Z" id="Shape" stroke="#12326B" stroke-width="1.25901632" stroke-linecap="round"></path>
            <path d="M43.7865672,75.9157895 C43.7865672,75.9157895 50.1681592,93.9789474 70.0711443,93.9789474 L69.5024876,95.1789474 L67.0383085,95.8736842 L38.1631841,95.6210526 L35.8885572,93.7263158 L37.2154229,90.7578947 L43.7865672,75.9157895 Z" id="Shape" fill="#B7C1D2"></path>
            <path d="M79.1696517,75.8526316 C79.1696517,75.8526316 85.6144279,93.9157895 105.454229,93.9157895 L104.885572,95.1157895 L102.421393,95.8105263 L73.6094527,95.5578947 L71.3348259,93.6631579 L72.6616915,90.6947368 L79.1696517,75.8526316 Z" id="Shape" fill="#B7C1D2"></path>
            <path d="M106.08607,92.9052632 C106.654726,94.1684211 105.580597,95.2421053 103.685075,95.3052632 L73.8621891,95.3052632 C72.1562189,95.3052632 71.0820896,94.2315789 71.461194,92.9052632 L78.2218905,76.4210526 C78.9169154,74.7157895 79.9910448,74.0210526 81.2547264,74.0210526 L96.5452736,74.0210526 C97.8721393,74.0210526 98.8830846,74.9052632 99.3885572,76.4210526 L106.08607,92.9052632 Z" id="Shape" stroke="#12326B" stroke-width="1.25901632" stroke-linecap="round"></path>
            <path d="M70.7661692,92.9052632 C71.3348259,94.1684211 70.2606965,95.2421053 68.3651741,95.3052632 L38.5422886,95.3052632 C36.8363184,95.3052632 35.7621891,94.2315789 36.1412935,92.9052632 L42.90199,76.4210526 C43.5970149,74.7157895 44.6711443,74.0210526 45.9348259,74.0210526 L61.2253731,74.0210526 C62.5522388,74.0210526 63.5631841,74.9052632 64.0686567,76.4210526 L70.7661692,92.9052632 Z" id="Shape" stroke="#12326B" stroke-width="1.25901632" stroke-linecap="round"></path>
            <path d="M96.6084577,38.6526316 C96.5452736,39.0947368 96.1029851,39.4105263 95.6606965,39.2842105 L31.4024876,24.7578947 C30.960199,24.6947368 30.6442786,24.2526316 30.7706468,23.8105263 L40.1218905,8.21052632 C40.1850746,7.76842105 40.6273632,7.45263158 41.0696517,7.57894737 L94.1442786,19.5789474 C94.5865672,19.6421053 94.9024876,20.0842105 94.7761194,20.5263158 L96.6084577,38.6526316 Z" id="Shape" fill="#D0D6E1"></path>
            <path d="M41.1328358,7.64210526 C41.1328358,7.64210526 57.939801,28.3578947 86.8149254,37.1368421 L31.3393035,24.7578947 L30.7074627,23.7473684 L40.500995,7.57894737" id="Shape" fill="#B7C1D2"></path>
            <path d="M96.6084577,38.6526316 C96.5452736,39.0947368 96.1029851,39.4105263 95.6606965,39.2842105 L31.4024876,24.7578947 C30.960199,24.6947368 30.6442786,24.2526316 30.7706468,23.8105263 L40.1218905,8.21052632 C40.1850746,7.76842105 40.6273632,7.45263158 41.0696517,7.57894737 L94.1442786,19.5789474 C94.5865672,19.6421053 94.9024876,20.0842105 94.7761194,20.5263158 L96.6084577,38.6526316 Z" id="Shape" stroke="#12326B" stroke-width="1.25901632" stroke-linecap="round"></path>
            <path d="M96.6084577,14.7157895 C95.7870647,11.1157895 92.9437811,8.33684211 89.3422886,7.51578947 C92.9437811,6.69473684 95.7238806,3.85263158 96.5452736,0.315789474 C97.3666667,3.91578947 100.20995,6.69473684 103.811443,7.51578947 C100.20995,8.33684211 97.4298507,11.1157895 96.6084577,14.7157895 Z" id="Shape" fill="#12326B" fill-rule="nonzero" opacity="0.1"></path>
            <path d="M28.559204,48.8210526 C27.8641791,45.9789474 25.6527363,43.7684211 22.8094527,43.0736842 C25.6527363,42.3789474 27.8641791,40.1684211 28.559204,37.3263158 C29.2542289,40.1684211 31.4656716,42.3789474 34.3089552,43.0736842 C31.4656716,43.7684211 29.2542289,45.9789474 28.559204,48.8210526 Z" id="Shape" fill="#12326B" fill-rule="nonzero" opacity="0.1"></path>
            <path d="M115.626866,34.2315789 C115.374129,33.2210526 114.552736,32.4 113.541791,32.1473684 C114.552736,31.8947368 115.374129,31.0736842 115.626866,30.0631579 C115.879602,31.0736842 116.700995,31.8947368 117.71194,32.1473684 C116.700995,32.3368421 115.879602,33.1578947 115.626866,34.2315789 Z" id="Shape" fill="#EF476F"></path>
            <path d="M18.3865672,16.9894737 C18.1338308,15.9789474 17.3124378,15.1578947 16.3014925,14.9052632 C17.3124378,14.6526316 18.1338308,13.8315789 18.3865672,12.8210526 C18.6393035,13.8315789 19.3975124,14.6526316 20.4716418,14.9052632 C19.4606965,15.1578947 18.6393035,15.9157895 18.3865672,16.9894737 Z" id="Shape" fill="#12326B" fill-rule="nonzero" opacity="0.1"></path>
            <path d="M7.70845771,49.0105263 C7.58208955,48.3789474 7.07661692,47.8736842 6.38159204,47.6842105 C7.01343284,47.5578947 7.51890547,47.0526316 7.70845771,46.3578947 C7.83482587,46.9894737 8.34029851,47.4947368 9.03532338,47.6842105 C8.34029851,47.8736842 7.83482587,48.3789474 7.70845771,49.0105263 Z" id="Shape" fill="#EF476F"></path>
            <path d="M95.3447761,14.7157895 C94.5233831,11.1157895 91.6800995,8.33684211 88.078607,7.51578947 C91.6800995,6.69473684 94.460199,3.85263158 95.281592,0.315789474 C96.1029851,3.91578947 98.9462687,6.69473684 102.547761,7.51578947 C98.9462687,8.33684211 96.1661692,11.1157895 95.3447761,14.7157895 Z" id="Shape" fill="#EF476F"></path>
            <path d="M28.559204,48.8210526 C27.8641791,45.9789474 25.6527363,43.7684211 22.8094527,43.0736842 C25.6527363,42.3789474 27.8641791,40.1684211 28.559204,37.3263158 C29.2542289,40.1684211 31.4656716,42.3789474 34.3089552,43.0736842 C31.4656716,43.7684211 29.2542289,45.9789474 28.559204,48.8210526 Z" id="Shape" fill="#EF476F"></path>
            <path d="M80.8124378,67.3263158 C80.3701493,65.3052632 78.7905473,63.7263158 76.7686567,63.2842105 C78.7905473,62.8421053 80.3701493,61.2631579 80.8124378,59.2421053 C81.2547264,61.2631579 82.8343284,62.8421053 84.8562189,63.2842105 C82.8975124,63.7894737 81.3179104,65.3684211 80.8124378,67.3263158 Z" id="Shape" fill="#EF476F"></path>
            <path d="M113.541791,32.1473684 C114.552736,31.8947368 115.374129,31.0736842 115.626866,30.0631579" id="Shape" fill="#FFFFFF" fill-rule="nonzero" opacity="0.1"></path>
            <path d="M18.3865672,16.9894737 C18.1338308,15.9789474 17.3124378,15.1578947 16.3014925,14.9052632 C17.3124378,14.6526316 18.1338308,13.8315789 18.3865672,12.8210526 C18.6393035,13.8315789 19.3975124,14.6526316 20.4716418,14.9052632 C19.4606965,15.1578947 18.6393035,15.9157895 18.3865672,16.9894737 Z" id="Shape" fill="#EF476F"></path>
            <path d="M7.70845771,49.0105263 C7.58208955,48.3789474 7.07661692,47.8736842 6.38159204,47.6842105" id="Shape" fill="#FFFFFF" fill-rule="nonzero" opacity="0.1"></path>
        </g>
    </g>
</svg>