<svg xmlns="http://www.w3.org/2000/svg" width="1522.393" height="363.037" viewBox="0 0 1522.393 363.037">
  <g id="lunologo" transform="translate(0 -0.091)">
    <path id="Path_205" data-name="Path 205" d="M787.782,176.551c0,19.5-1.625,36.015-6.228,52.262a190.037,190.037,0,0,1-19.226,44.41,173.546,173.546,0,0,1-41.7,47.117c-10.02,7.853-20.58,14.893-32.5,19.768-8.395,3.52-16.789,7.311-25.455,9.748A153.239,153.239,0,0,1,638.036,355a296.205,296.205,0,0,1-30.87,2.437c-12.456.542-24.642-1.354-36.827-3.52a175.846,175.846,0,0,1-60.657-24.1,171.3,171.3,0,0,1-28.7-23.288c-15.164-14.893-26.537-32.224-35.2-51.721-6.77-14.623-10.832-30.328-13.269-46.034-2.708-17.06-3.521-34.12-.271-51.45,1.9-10.29,3.25-20.851,6.229-30.6,3.249-10.29,7.853-20.309,12.456-30.058A135.913,135.913,0,0,1,478,58.487,227.261,227.261,0,0,1,503.724,35.74a157.735,157.735,0,0,1,40.618-21.392A203.437,203.437,0,0,1,584.148,4.6a175.6,175.6,0,0,1,47.659-.542,219,219,0,0,1,28.975,5.687,165.27,165.27,0,0,1,52.533,24.1A171.579,171.579,0,0,1,749.06,66.61a176.346,176.346,0,0,1,28.433,50.1C784.262,136.745,788.053,157.867,787.782,176.551ZM607.166,312.217c26.538-.271,34.932-2.708,53.346-10.019a113.811,113.811,0,0,0,33.307-21.122c15.435-13.539,26.267-29.787,33.849-48.742,5.958-14.623,8.666-30.058,9.207-45.763.542-18.955-1.625-37.369-8.666-55.241a143.267,143.267,0,0,0-14.623-28.7A118.757,118.757,0,0,0,684.611,72.3a126.4,126.4,0,0,0-25.725-14.623A130.659,130.659,0,0,0,611.5,47.384a125.241,125.241,0,0,0-54.429,10.561,115.146,115.146,0,0,0-39.535,27.35,170.843,170.843,0,0,0-17.872,23.288c-8.667,13.54-13.811,28.7-16.519,44.41a145.43,145.43,0,0,0,1.083,58.22,142.306,142.306,0,0,0,15.164,38.994,123.99,123.99,0,0,0,67.156,54.97A134.974,134.974,0,0,0,607.166,312.217Z" transform="translate(734.597 4.452)" fill="#12326B"/>
    <path id="Path_206" data-name="Path 206" d="M278.342,231.641V136.864c0-11.915,2.979-23.559,5.957-35.2a138.7,138.7,0,0,1,11.644-28.7,121.816,121.816,0,0,1,20.58-27.891A130.409,130.409,0,0,1,343.6,23.4,154.343,154.343,0,0,1,385.574,6.073,202.491,202.491,0,0,1,445.419.386c13,.812,26,2.437,38.181,6.228a214.167,214.167,0,0,1,28.7,10.561,128.531,128.531,0,0,1,43.868,33.307c13.811,15.706,23.017,33.849,28.433,53.887a145.721,145.721,0,0,1,5.416,38.994q.406,90.579.271,181.158c0,9.207-2.979,16.518-10.561,22.476-7.04,5.687-22.2,5.416-29.516-1.354-6.5-5.957-8.665-13.269-8.665-21.663V228.12c0-27.35.271-54.7-.271-82.32a99.046,99.046,0,0,0-66.073-90.715c-20.58-7.311-41.431-8.665-62.823-5.416A105.26,105.26,0,0,0,370.41,65.376,93.127,93.127,0,0,0,342.79,92.184a100.937,100.937,0,0,0-12.457,25.454,50.5,50.5,0,0,0-2.979,13.81C326.542,142.822,326,154.195,326,165.3c-.271,52.533,0,104.8,0,157.329,0,9.207-2.708,17.331-10.019,23.559-8.395,7.041-24.1,6.228-31.953-2.979a25.261,25.261,0,0,1-6.228-16.789c.271-31.412.271-63.094.542-94.776Z" transform="translate(474.454 0)" fill="#12326B"/>
    <path id="Path_207" data-name="Path 207" d="M437.091,124.964c0,30.328.271,60.928,0,91.256-.271,18.143-4.332,35.473-11.1,52.262a127.808,127.808,0,0,1-28.974,43.868,131.372,131.372,0,0,1-42.243,28.7c-10.832,4.874-22.475,8.124-34.12,10.832-18.414,4.062-37.1,4.062-55.783,3.249-9.749-.271-19.768-2.437-29.245-4.6a135.584,135.584,0,0,1-47.388-19.768,239.417,239.417,0,0,1-20.851-16.247c-7.853-6.5-13.81-14.623-19.5-23.017a122.892,122.892,0,0,1-14.081-28.7c-6.5-17.872-9.207-36.286-9.207-55.241V29.375c0-8.665,3.25-15.435,10.019-20.58,6.5-4.874,14.081-5.145,21.663-2.979C166.573,8.8,172.53,18.544,172.53,28.563c-.271,29.787,0,59.3,0,89.09,0,28.433-.271,56.866,0,85.028a117.559,117.559,0,0,0,5.687,34.661,104.318,104.318,0,0,0,17.872,33.307,96.789,96.789,0,0,0,30.6,24.642c24.371,12.456,50.1,15.164,76.633,10.832,22.746-3.791,42.514-13.539,58.491-30.6a96.711,96.711,0,0,0,20.851-34.12c4.874-13.269,6.5-27.35,6.5-41.431V28.834c0-16.789,16.248-28.433,33.307-22.2,7.853,2.708,15.164,13,15.164,22.476-.542,31.953-.271,63.906-.542,95.86Z" transform="translate(212.804 7.567)" fill="#12326B"/>
    <path id="Path_208" data-name="Path 208" d="M0,121.669V27.164C0,17.686,4.6,10.646,13,6.042c7.853-4.062,15.435-3.52,23.017.812C44.41,11.729,47.93,19.311,47.93,28.788V202.365a106.144,106.144,0,0,0,11.915,49.555,97.225,97.225,0,0,0,17.872,24.913,101.231,101.231,0,0,0,32.495,21.392,120.564,120.564,0,0,0,45.763,8.665h74.2c10.561,0,18.143,4.333,23.288,13.539,3.52,6.5,2.708,19.5-4.062,26.537-5.687,5.687-12.186,7.582-19.5,7.582-25.725.271-51.45.271-76.9,0-21.663-.271-43.056-3.52-63.365-11.644-25.183-10.019-46.576-24.913-62.282-47.388a138.191,138.191,0,0,1-14.081-24.642,152.315,152.315,0,0,1-11.1-39.806C0,218.612,0,205.885,0,192.887Z" transform="translate(0 5.447)" fill="#12326B"/>
  </g>
</svg>
