<svg xmlns="http://www.w3.org/2000/svg" xmlns:xlink="http://www.w3.org/1999/xlink" width="89.581" height="18" viewBox="0 0 89.581 18">
  <defs>
    <clipPath id="clip-path">
      <rect width="17.581" height="18" fill="none"/>
    </clipPath>
  </defs>
  <g id="Group_81" data-name="Group 81" transform="translate(-1513 -1201)">
    <g id="star-active" transform="translate(1513 1201)" clip-path="url(#clip-path)">
      <g id="star-active-2" data-name="star-active" transform="translate(1 1)">
        <g id="Luno-home-web-02a" transform="translate(-1241 -955)">
          <g id="_-Header" data-name="//-Header" transform="translate(-5 -4)">
            <g id="Social-proof" transform="translate(91 892)">
              <g id="Group-7" transform="translate(1080)">
                <g id="Group-8" transform="translate(74 66)">
                  <g id="active">
                    <path id="Stroke-1" d="M0,0H17.581V18H0Z" fill="none" stroke="rgba(0,0,0,0.01)" stroke-width="1" fill-rule="evenodd"/>
                    <path id="Fill-2" d="M8.791,12.952l4.527,2.8-1.2-5.273,4-3.547-5.267-.457L8.791,1.5,6.732,6.472,1.465,6.93l4,3.547-1.2,5.273Z" fill="#f6d750" fill-rule="evenodd"/>
                  </g>
                </g>
              </g>
            </g>
          </g>
        </g>
      </g>
    </g>
    <g id="star-active-3" data-name="star-active" transform="translate(1531 1201)" clip-path="url(#clip-path)">
      <g id="star-active-4" data-name="star-active" transform="translate(1 1)">
        <g id="Luno-home-web-02a-2" data-name="Luno-home-web-02a" transform="translate(-1241 -955)">
          <g id="_-Header-2" data-name="//-Header" transform="translate(-5 -4)">
            <g id="Social-proof-2" data-name="Social-proof" transform="translate(91 892)">
              <g id="Group-7-2" data-name="Group-7" transform="translate(1080)">
                <g id="Group-8-2" data-name="Group-8" transform="translate(74 66)">
                  <g id="active-2" data-name="active">
                    <path id="Stroke-1-2" data-name="Stroke-1" d="M0,0H17.581V18H0Z" fill="none" stroke="rgba(0,0,0,0.01)" stroke-width="1" fill-rule="evenodd"/>
                    <path id="Fill-2-2" data-name="Fill-2" d="M8.791,12.952l4.527,2.8-1.2-5.273,4-3.547-5.267-.457L8.791,1.5,6.732,6.472,1.465,6.93l4,3.547-1.2,5.273Z" fill="#f6d750" fill-rule="evenodd"/>
                  </g>
                </g>
              </g>
            </g>
          </g>
        </g>
      </g>
    </g>
    <g id="star-active-5" data-name="star-active" transform="translate(1549 1201)" clip-path="url(#clip-path)">
      <g id="star-active-6" data-name="star-active" transform="translate(1 1)">
        <g id="Luno-home-web-02a-3" data-name="Luno-home-web-02a" transform="translate(-1241 -955)">
          <g id="_-Header-3" data-name="//-Header" transform="translate(-5 -4)">
            <g id="Social-proof-3" data-name="Social-proof" transform="translate(91 892)">
              <g id="Group-7-3" data-name="Group-7" transform="translate(1080)">
                <g id="Group-8-3" data-name="Group-8" transform="translate(74 66)">
                  <g id="active-3" data-name="active">
                    <path id="Stroke-1-3" data-name="Stroke-1" d="M0,0H17.581V18H0Z" fill="none" stroke="rgba(0,0,0,0.01)" stroke-width="1" fill-rule="evenodd"/>
                    <path id="Fill-2-3" data-name="Fill-2" d="M8.791,12.952l4.527,2.8-1.2-5.273,4-3.547-5.267-.457L8.791,1.5,6.732,6.472,1.465,6.93l4,3.547-1.2,5.273Z" fill="#f6d750" fill-rule="evenodd"/>
                  </g>
                </g>
              </g>
            </g>
          </g>
        </g>
      </g>
    </g>
    <g id="star-active-7" data-name="star-active" transform="translate(1567 1201)" clip-path="url(#clip-path)">
      <g id="star-active-8" data-name="star-active" transform="translate(1 1)">
        <g id="Luno-home-web-02a-4" data-name="Luno-home-web-02a" transform="translate(-1241 -955)">
          <g id="_-Header-4" data-name="//-Header" transform="translate(-5 -4)">
            <g id="Social-proof-4" data-name="Social-proof" transform="translate(91 892)">
              <g id="Group-7-4" data-name="Group-7" transform="translate(1080)">
                <g id="Group-8-4" data-name="Group-8" transform="translate(74 66)">
                  <g id="active-4" data-name="active">
                    <path id="Stroke-1-4" data-name="Stroke-1" d="M0,0H17.581V18H0Z" fill="none" stroke="rgba(0,0,0,0.01)" stroke-width="1" fill-rule="evenodd"/>
                    <path id="Fill-2-4" data-name="Fill-2" d="M8.791,12.952l4.527,2.8-1.2-5.273,4-3.547-5.267-.457L8.791,1.5,6.732,6.472,1.465,6.93l4,3.547-1.2,5.273Z" fill="#f6d750" fill-rule="evenodd"/>
                  </g>
                </g>
              </g>
            </g>
          </g>
        </g>
      </g>
    </g>
    <g id="star-active-9" data-name="star-active" transform="translate(1585 1201)" clip-path="url(#clip-path)">
      <g id="star-active-10" data-name="star-active" transform="translate(1 1)">
        <g id="Luno-home-web-02a-5" data-name="Luno-home-web-02a" transform="translate(-1241 -955)">
          <g id="_-Header-5" data-name="//-Header" transform="translate(-5 -4)">
            <g id="Social-proof-5" data-name="Social-proof" transform="translate(91 892)">
              <g id="Group-7-5" data-name="Group-7" transform="translate(1080)">
                <g id="Group-8-5" data-name="Group-8" transform="translate(74 66)">
                  <g id="active-5" data-name="active">
                    <path id="Stroke-1-5" data-name="Stroke-1" d="M0,0H17.581V18H0Z" fill="none" stroke="rgba(0,0,0,0.01)" stroke-width="1" fill-rule="evenodd"/>
                    <path id="Fill-2-5" data-name="Fill-2" d="M8.791,12.952l4.527,2.8-1.2-5.273,4-3.547-5.267-.457L8.791,1.5,6.732,6.472,1.465,6.93l4,3.547-1.2,5.273Z" fill="#f6d750" fill-rule="evenodd"/>
                  </g>
                </g>
              </g>
            </g>
          </g>
        </g>
      </g>
    </g>
  </g>
</svg>
