<svg xmlns="http://www.w3.org/2000/svg" width="268" height="101" viewBox="0 0 268 101">
  <g id="Group_83" data-name="Group 83" transform="translate(445 -3666)">
    <g id="website" transform="translate(-410.155 3696.091)">
      <g id="Top" transform="translate(0.155 0.909)">
        <g id="Group_82" data-name="Group 82">
          <g id="Web" transform="translate(0 0)">
            <g id="Group-5" transform="translate(0 0)">
              <path id="Shape" d="M40.169,35.535a4.035,4.035,0,0,0,4-4.045V11.268a4.035,4.035,0,0,0-4-4.045H8.158a4.035,4.035,0,0,0-4,4.045V31.491a4.035,4.035,0,0,0,4,4.045h-8V39.58H48.172V35.535ZM8.386,11.354H40.627V31.319H8.386V11.354Z" transform="translate(-0.155 -0.439)" fill="#fff" fill-rule="evenodd"/>
              <path id="Sign-up-on-our-Websi-Copy" d="M72.527,10.209a2.035,2.035,0,0,0-.13-.755,1.506,1.506,0,0,0-.462-.6,3.678,3.678,0,0,0-.894-.512,13.065,13.065,0,0,0-1.427-.491,12.121,12.121,0,0,1-1.641-.592,5.39,5.39,0,0,1-1.251-.764,3.08,3.08,0,0,1-.793-.986,2.8,2.8,0,0,1-.277-1.267,2.965,2.965,0,0,1,.3-1.322,3.159,3.159,0,0,1,.844-1.058,4.013,4.013,0,0,1,1.309-.7,5.422,5.422,0,0,1,1.7-.252,5.084,5.084,0,0,1,1.838.311A4.154,4.154,0,0,1,73,2.042a3.445,3.445,0,0,1,.835,1.183,3.507,3.507,0,0,1,.285,1.385H72.5a2.68,2.68,0,0,0-.164-.948,1.994,1.994,0,0,0-.5-.755,2.3,2.3,0,0,0-.839-.5,3.614,3.614,0,0,0-1.192-.176,3.748,3.748,0,0,0-1.125.151,2.243,2.243,0,0,0-.789.415,1.65,1.65,0,0,0-.462.625,2.023,2.023,0,0,0-.151.789,1.521,1.521,0,0,0,.164.705,1.8,1.8,0,0,0,.508.588,3.867,3.867,0,0,0,.886.5,11.072,11.072,0,0,0,1.3.436,11.641,11.641,0,0,1,1.8.651,4.923,4.923,0,0,1,1.246.81,2.95,2.95,0,0,1,.73,1.016,3.232,3.232,0,0,1,.239,1.276,2.9,2.9,0,0,1-1.163,2.384,4.069,4.069,0,0,1-1.343.659,6.192,6.192,0,0,1-1.75.231,6.12,6.12,0,0,1-1.125-.1,5.567,5.567,0,0,1-1.079-.315,4.777,4.777,0,0,1-.957-.52,3.7,3.7,0,0,1-.768-.722,3.231,3.231,0,0,1-.512-.923,3.294,3.294,0,0,1-.185-1.125h1.62a2.112,2.112,0,0,0,.911,1.821,2.873,2.873,0,0,0,.957.432,4.572,4.572,0,0,0,1.137.138,3.168,3.168,0,0,0,1.956-.52A1.69,1.69,0,0,0,72.527,10.209ZM77.844,13.3H76.292V4.216h1.553ZM76.166,1.807a.927.927,0,0,1,.231-.638.867.867,0,0,1,.684-.26.88.88,0,0,1,.688.26A.917.917,0,0,1,78,1.807a.887.887,0,0,1-.235.63.9.9,0,0,1-.688.252.882.882,0,0,1-.684-.252A.9.9,0,0,1,76.166,1.807Zm3.983,6.874A6.77,6.77,0,0,1,80.4,6.788a4.393,4.393,0,0,1,.713-1.46,3.188,3.188,0,0,1,2.623-1.28,3.478,3.478,0,0,1,1.5.3,3.044,3.044,0,0,1,1.091.873L86.4,4.216H87.82V13.1a4.267,4.267,0,0,1-.281,1.6,3.278,3.278,0,0,1-.793,1.183,3.434,3.434,0,0,1-1.217.734,4.615,4.615,0,0,1-1.561.252,4.781,4.781,0,0,1-.81-.08,4.87,4.87,0,0,1-.923-.26,4.142,4.142,0,0,1-.894-.483,2.9,2.9,0,0,1-.73-.747l.806-.932A3.64,3.64,0,0,0,82,14.96a3.186,3.186,0,0,0,.609.378,2.741,2.741,0,0,0,.621.206,3.182,3.182,0,0,0,.625.063,2.99,2.99,0,0,0,.99-.155,2.006,2.006,0,0,0,.76-.466,2.067,2.067,0,0,0,.483-.76,2.977,2.977,0,0,0,.168-1.045v-.789a3.056,3.056,0,0,1-1.079.8,3.591,3.591,0,0,1-1.465.277,3.133,3.133,0,0,1-1.473-.344,3.329,3.329,0,0,1-1.125-.961A4.565,4.565,0,0,1,80.4,10.7a6.418,6.418,0,0,1-.252-1.842Zm1.561.176a5.681,5.681,0,0,0,.138,1.28,3.23,3.23,0,0,0,.428,1.045,2.065,2.065,0,0,0,1.826.965,2.551,2.551,0,0,0,.743-.1,2.241,2.241,0,0,0,.6-.277,2.147,2.147,0,0,0,.466-.42,2.968,2.968,0,0,0,.353-.537V6.667a3.114,3.114,0,0,0-.353-.516,2.2,2.2,0,0,0-.466-.415,2.161,2.161,0,0,0-.592-.273,2.578,2.578,0,0,0-.73-.1,2.13,2.13,0,0,0-1.091.264,2.206,2.206,0,0,0-.747.718A3.272,3.272,0,0,0,81.848,7.4a5.681,5.681,0,0,0-.138,1.28ZM91.82,4.216l.05,1.142A3.51,3.51,0,0,1,93.046,4.4a3.371,3.371,0,0,1,1.544-.348,3.754,3.754,0,0,1,1.2.18,2.207,2.207,0,0,1,.915.579,2.681,2.681,0,0,1,.583,1.024,4.885,4.885,0,0,1,.206,1.515V13.3H95.941V7.33a3.031,3.031,0,0,0-.118-.9,1.489,1.489,0,0,0-.348-.609,1.373,1.373,0,0,0-.571-.344,2.569,2.569,0,0,0-.785-.109,2.241,2.241,0,0,0-1.326.4,2.736,2.736,0,0,0-.89,1.058V13.3H90.351V4.216ZM110.077,12.4a2.894,2.894,0,0,1-1.083.785,3.988,3.988,0,0,1-1.578.281,3.7,3.7,0,0,1-1.217-.189,2.369,2.369,0,0,1-.94-.6,2.713,2.713,0,0,1-.609-1.049,4.927,4.927,0,0,1-.214-1.549V4.216h1.553V10.1a3.042,3.042,0,0,0,.143,1.011,1.642,1.642,0,0,0,.378.63,1.263,1.263,0,0,0,.537.319,2.207,2.207,0,0,0,.621.088,2.836,2.836,0,0,0,1.523-.361,2.151,2.151,0,0,0,.844-.965V4.216h1.553V13.3H110.11Zm11.73-3.542a6.847,6.847,0,0,1-.235,1.842,4.516,4.516,0,0,1-.684,1.46,3.089,3.089,0,0,1-2.6,1.305,3.861,3.861,0,0,1-1.5-.269,3.054,3.054,0,0,1-1.1-.781v4.373h-1.553V4.216h1.419l.076,1.007a3.079,3.079,0,0,1,1.116-.873,3.591,3.591,0,0,1,1.519-.3,3.292,3.292,0,0,1,1.515.336,3.163,3.163,0,0,1,1.112.944,4.3,4.3,0,0,1,.684,1.46,7.233,7.233,0,0,1,.231,1.893Zm-1.553-.176a5.521,5.521,0,0,0-.143-1.28,3.226,3.226,0,0,0-.445-1.053,2.256,2.256,0,0,0-.764-.718,2.176,2.176,0,0,0-1.1-.264,2.608,2.608,0,0,0-.718.092,2.14,2.14,0,0,0-1.045.659,2.978,2.978,0,0,0-.353.5v4.339a2.977,2.977,0,0,0,.353.5,2.078,2.078,0,0,0,.462.394,2.237,2.237,0,0,0,.588.256,2.688,2.688,0,0,0,.73.092,2.109,2.109,0,0,0,1.087-.269,2.31,2.31,0,0,0,.76-.722,3.222,3.222,0,0,0,.445-1.062,5.63,5.63,0,0,0,.143-1.288ZM128,8.673a5.614,5.614,0,0,1,.29-1.834,4.431,4.431,0,0,1,.823-1.465,3.765,3.765,0,0,1,1.3-.974,4.039,4.039,0,0,1,1.712-.353,4.109,4.109,0,0,1,1.733.353,3.8,3.8,0,0,1,1.305.974,4.334,4.334,0,0,1,.823,1.465,5.689,5.689,0,0,1,.285,1.834v.185a5.689,5.689,0,0,1-.285,1.834,4.288,4.288,0,0,1-.823,1.46,3.785,3.785,0,0,1-1.3.965,4.424,4.424,0,0,1-3.441,0,3.785,3.785,0,0,1-1.3-.965,4.344,4.344,0,0,1-.827-1.46A5.614,5.614,0,0,1,128,8.857Zm1.561.185a5.015,5.015,0,0,0,.159,1.284A3.266,3.266,0,0,0,130.2,11.2a2.412,2.412,0,0,0,.806.726,2.5,2.5,0,0,0,2.254,0,2.359,2.359,0,0,0,.806-.726,3.387,3.387,0,0,0,.483-1.062,4.894,4.894,0,0,0,.164-1.284V8.673a4.908,4.908,0,0,0-.164-1.28,3.327,3.327,0,0,0-.487-1.066,2.441,2.441,0,0,0-.81-.73,2.279,2.279,0,0,0-1.133-.273,2.215,2.215,0,0,0-1.116.273,2.469,2.469,0,0,0-.8.73,3.262,3.262,0,0,0-.483,1.066,5.03,5.03,0,0,0-.159,1.28Zm10.312-4.642.05,1.142A3.51,3.51,0,0,1,141.1,4.4a3.371,3.371,0,0,1,1.544-.348,3.755,3.755,0,0,1,1.2.18,2.207,2.207,0,0,1,.915.579,2.681,2.681,0,0,1,.583,1.024,4.885,4.885,0,0,1,.206,1.515V13.3H144V7.33a3.031,3.031,0,0,0-.118-.9,1.489,1.489,0,0,0-.348-.609,1.373,1.373,0,0,0-.571-.344,2.569,2.569,0,0,0-.785-.109,2.241,2.241,0,0,0-1.326.4,2.736,2.736,0,0,0-.89,1.058V13.3h-1.553V4.216Zm12.238,4.457a5.614,5.614,0,0,1,.29-1.834,4.432,4.432,0,0,1,.823-1.465,3.765,3.765,0,0,1,1.3-.974,4.039,4.039,0,0,1,1.712-.353,4.109,4.109,0,0,1,1.733.353,3.8,3.8,0,0,1,1.305.974,4.335,4.335,0,0,1,.823,1.465,5.689,5.689,0,0,1,.285,1.834v.185a5.689,5.689,0,0,1-.285,1.834,4.288,4.288,0,0,1-.823,1.46,3.785,3.785,0,0,1-1.3.965,4.424,4.424,0,0,1-3.441,0,3.785,3.785,0,0,1-1.3-.965,4.344,4.344,0,0,1-.827-1.46,5.614,5.614,0,0,1-.29-1.834Zm1.561.185a5.015,5.015,0,0,0,.159,1.284,3.266,3.266,0,0,0,.483,1.062,2.412,2.412,0,0,0,.806.726,2.5,2.5,0,0,0,2.254,0,2.359,2.359,0,0,0,.806-.726,3.387,3.387,0,0,0,.483-1.062,4.894,4.894,0,0,0,.164-1.284V8.673a4.908,4.908,0,0,0-.164-1.28,3.327,3.327,0,0,0-.487-1.066,2.441,2.441,0,0,0-.81-.73,2.279,2.279,0,0,0-1.133-.273,2.215,2.215,0,0,0-1.116.273,2.469,2.469,0,0,0-.8.73,3.262,3.262,0,0,0-.483,1.066,5.03,5.03,0,0,0-.159,1.28Zm14.45,3.542a2.894,2.894,0,0,1-1.083.785,3.988,3.988,0,0,1-1.578.281,3.7,3.7,0,0,1-1.217-.189,2.369,2.369,0,0,1-.94-.6,2.713,2.713,0,0,1-.609-1.049,4.927,4.927,0,0,1-.214-1.549V4.216h1.553V10.1a3.042,3.042,0,0,0,.143,1.011,1.642,1.642,0,0,0,.378.63,1.263,1.263,0,0,0,.537.319,2.207,2.207,0,0,0,.621.088,2.836,2.836,0,0,0,1.523-.361,2.151,2.151,0,0,0,.844-.965V4.216h1.553V13.3h-1.477Zm8.448-6.79q-.2-.034-.374-.046t-.39-.013a2.255,2.255,0,0,0-1.314.353,2.141,2.141,0,0,0-.76.948V13.3h-1.553V4.216h1.511l.025,1.049a2.734,2.734,0,0,1,.881-.89,2.394,2.394,0,0,1,1.284-.327,2.3,2.3,0,0,1,.386.038,1.225,1.225,0,0,1,.3.08ZM84.518,39.367l3.459-16.927h3.876L86.665,44.927H82.927L78.649,28.51,74.278,44.927H70.525L65.336,22.441h3.876l3.49,16.9L77,22.441h3.274Zm17.058,5.869a8.6,8.6,0,0,1-3.336-.618,7.344,7.344,0,0,1-2.517-1.7,7.435,7.435,0,0,1-1.591-2.564,9.032,9.032,0,0,1-.556-3.2v-.618a10.314,10.314,0,0,1,.587-3.575,8.163,8.163,0,0,1,1.606-2.718,7.078,7.078,0,0,1,2.4-1.73,7.28,7.28,0,0,1,2.973-.61,7.6,7.6,0,0,1,3.166.61,5.964,5.964,0,0,1,2.224,1.707,7.332,7.332,0,0,1,1.313,2.61,12.056,12.056,0,0,1,.432,3.32v1.606H97.36a6,6,0,0,0,.409,1.792,4.4,4.4,0,0,0,.9,1.413,4.153,4.153,0,0,0,1.351.934,4.387,4.387,0,0,0,1.768.34,5,5,0,0,0,2.417-.556,5.664,5.664,0,0,0,1.784-1.529l2.023,1.931a6.857,6.857,0,0,1-1,1.166,6.774,6.774,0,0,1-1.39,1,8,8,0,0,1-1.8.71A8.679,8.679,0,0,1,101.576,45.236Zm-.448-14.317A3.16,3.16,0,0,0,98.634,32a5.6,5.6,0,0,0-1.212,3.012h7.151v-.278a6.847,6.847,0,0,0-.239-1.429,3.642,3.642,0,0,0-.595-1.22,2.875,2.875,0,0,0-1.042-.849A3.516,3.516,0,0,0,101.128,30.919ZM126.2,36.742a12.965,12.965,0,0,1-.425,3.413,8.188,8.188,0,0,1-1.243,2.687A5.779,5.779,0,0,1,122.5,44.6a6.629,6.629,0,0,1-5.467.085,5.355,5.355,0,0,1-1.915-1.568l-.185,1.807h-3.4V21.205h3.753v8.618a5.365,5.365,0,0,1,1.861-1.421,5.948,5.948,0,0,1,2.51-.494,6.148,6.148,0,0,1,2.842.625,5.775,5.775,0,0,1,2.046,1.753,7.979,7.979,0,0,1,1.243,2.695,13.346,13.346,0,0,1,.417,3.436Zm-3.753-.324a11.779,11.779,0,0,0-.178-2.085,5.248,5.248,0,0,0-.61-1.73,3.33,3.33,0,0,0-1.151-1.181,3.389,3.389,0,0,0-1.8-.44,3.683,3.683,0,0,0-2.147.579,3.762,3.762,0,0,0-1.282,1.552V40a3.908,3.908,0,0,0,1.29,1.575,3.642,3.642,0,0,0,2.17.6,3.346,3.346,0,0,0,1.745-.425,3.306,3.306,0,0,0,1.151-1.158,5.172,5.172,0,0,0,.625-1.722,11.569,11.569,0,0,0,.185-2.131Zm16.611,3.969a2.1,2.1,0,0,0-.131-.749,1.53,1.53,0,0,0-.517-.649,4.154,4.154,0,0,0-1.089-.564,12.659,12.659,0,0,0-1.83-.494,16.264,16.264,0,0,1-2.448-.695,7.545,7.545,0,0,1-1.892-1.012,4.389,4.389,0,0,1-1.228-1.4,3.794,3.794,0,0,1-.44-1.853,4.368,4.368,0,0,1,.448-1.938,4.823,4.823,0,0,1,1.29-1.614,6.436,6.436,0,0,1,2.039-1.1,8.248,8.248,0,0,1,2.68-.409,8.941,8.941,0,0,1,2.8.409,6.385,6.385,0,0,1,2.108,1.127,4.82,4.82,0,0,1,1.776,3.792h-3.753a2.459,2.459,0,0,0-.185-.934,2.331,2.331,0,0,0-.556-.811,2.691,2.691,0,0,0-.919-.564,3.574,3.574,0,0,0-1.274-.208,3.863,3.863,0,0,0-1.236.178,2.744,2.744,0,0,0-.873.463,1.822,1.822,0,0,0-.517.664,1.92,1.92,0,0,0-.17.8,1.7,1.7,0,0,0,.154.741,1.5,1.5,0,0,0,.548.587,4.555,4.555,0,0,0,1.058.486,15.672,15.672,0,0,0,1.668.44,19.7,19.7,0,0,1,2.6.726,7.356,7.356,0,0,1,1.946,1.019,4.126,4.126,0,0,1,1.212,1.421,4.239,4.239,0,0,1,.417,1.946,4.375,4.375,0,0,1-.479,2.039,4.7,4.7,0,0,1-1.367,1.6,6.631,6.631,0,0,1-2.139,1.042,9.766,9.766,0,0,1-2.78.371,8.749,8.749,0,0,1-3.035-.486,6.958,6.958,0,0,1-2.216-1.274,5.309,5.309,0,0,1-1.351-1.784,4.837,4.837,0,0,1-.456-2.031h3.645a2.869,2.869,0,0,0,.355,1.3,2.6,2.6,0,0,0,.788.849,3.3,3.3,0,0,0,1.081.471,5.2,5.2,0,0,0,1.236.147,3.8,3.8,0,0,0,2.255-.564A1.745,1.745,0,0,0,139.06,40.387Zm11.3,4.541H146.6V28.217h3.753Zm-3.985-21.05a1.992,1.992,0,0,1,.548-1.436,2.071,2.071,0,0,1,1.568-.571,2.1,2.1,0,0,1,1.575.571,1.976,1.976,0,0,1,.556,1.436,1.931,1.931,0,0,1-.556,1.413,2.113,2.113,0,0,1-1.575.564,2.087,2.087,0,0,1-1.568-.564A1.945,1.945,0,0,1,146.373,23.877Zm13.12.278v4.062h2.95V31h-2.95v9.328a2.879,2.879,0,0,0,.124.927,1.211,1.211,0,0,0,.355.548,1.265,1.265,0,0,0,.548.263,3.283,3.283,0,0,0,.7.07,5.08,5.08,0,0,0,.749-.054q.363-.054.564-.1v2.9q-.448.124-1.042.239a7.588,7.588,0,0,1-1.429.116,5.777,5.777,0,0,1-1.722-.247,3.419,3.419,0,0,1-1.375-.8,3.735,3.735,0,0,1-.9-1.452,6.482,6.482,0,0,1-.324-2.193V31h-2.749v-2.78h2.749V24.155Zm13.522,21.081a8.6,8.6,0,0,1-3.336-.618,7.344,7.344,0,0,1-2.517-1.7,7.435,7.435,0,0,1-1.591-2.564,9.032,9.032,0,0,1-.556-3.2v-.618a10.314,10.314,0,0,1,.587-3.575,8.162,8.162,0,0,1,1.606-2.718,7.078,7.078,0,0,1,2.4-1.73,7.28,7.28,0,0,1,2.973-.61,7.6,7.6,0,0,1,3.166.61,5.964,5.964,0,0,1,2.224,1.707,7.331,7.331,0,0,1,1.313,2.61,12.056,12.056,0,0,1,.432,3.32v1.606H168.8a6,6,0,0,0,.409,1.792,4.4,4.4,0,0,0,.9,1.413,4.153,4.153,0,0,0,1.351.934,4.387,4.387,0,0,0,1.768.34,5,5,0,0,0,2.417-.556,5.664,5.664,0,0,0,1.784-1.529l2.023,1.931a6.858,6.858,0,0,1-1,1.166,6.774,6.774,0,0,1-1.39,1,8,8,0,0,1-1.8.71A8.679,8.679,0,0,1,173.015,45.236Zm-.448-14.317A3.16,3.16,0,0,0,170.073,32a5.6,5.6,0,0,0-1.212,3.012h7.151v-.278a6.846,6.846,0,0,0-.239-1.429,3.642,3.642,0,0,0-.595-1.22,2.875,2.875,0,0,0-1.042-.849A3.516,3.516,0,0,0,172.567,30.919Z" transform="translate(4.688 -0.909)" fill="#fff" fill-rule="evenodd"/>
            </g>
          </g>
        </g>
      </g>
    </g>
    <g id="Rectangle_56" data-name="Rectangle 56" transform="translate(-445 3666)" fill="none" stroke="#fff" stroke-width="1">
      <path d="M5,0H263a5,5,0,0,1,5,5V96a5,5,0,0,1-5,5H0a0,0,0,0,1,0,0V5A5,5,0,0,1,5,0Z" stroke="none"/>
      <path d="M5,.5H263A4.5,4.5,0,0,1,267.5,5V96a4.5,4.5,0,0,1-4.5,4.5H1a.5.5,0,0,1-.5-.5V5A4.5,4.5,0,0,1,5,.5Z" fill="none"/>
    </g>
  </g>
</svg>
